<svg width="24" height="24" viewBox="0 0 24 24" fill="none" xmlns="http://www.w3.org/2000/svg">
<path d="M17.293 5.29297C17.6835 4.90244 18.3165 4.90244 18.707 5.29297C19.0974 5.68351 19.0975 6.31656 18.707 6.70703L13.4141 12L18.707 17.293C19.0973 17.6835 19.0974 18.3166 18.707 18.707C18.3166 19.0975 17.6835 19.0974 17.293 18.707L12 13.4141L6.70703 18.707C6.31655 19.0974 5.68346 19.0974 5.29297 18.707C4.90249 18.3166 4.90259 17.6835 5.29297 17.293L10.5859 12L5.29297 6.70703C4.90259 6.3165 4.90249 5.68345 5.29297 5.29297C5.68346 4.9026 6.31653 4.90262 6.70703 5.29297L12 10.5859L17.293 5.29297Z" fill="#5856D6"/>
</svg>
