<svg width="46" height="31" viewBox="0 0 46 31" fill="none" xmlns="http://www.w3.org/2000/svg">
<rect x="0.5" y="0.5" width="45" height="30" rx="4.5" fill="white"/>
<rect x="0.5" y="0.5" width="45" height="30" rx="4.5" stroke="#DDE4F9"/>
<path d="M11.5952 10.2332C12.0269 9.69932 12.3199 8.9825 12.2426 8.25C11.6106 8.28107 10.8394 8.66221 10.3929 9.19648C9.992 9.65401 9.63716 10.4008 9.72967 11.1026C10.4391 11.1635 11.1479 10.7521 11.5952 10.2332Z" fill="black"/>
<path d="M12.2363 11.2399C11.2061 11.1792 10.3301 11.818 9.83806 11.818C9.34578 11.818 8.59235 11.2705 7.77746 11.2852C6.71682 11.3006 5.73268 11.8935 5.19445 12.8365C4.08741 14.7228 4.9023 17.521 5.97884 19.0573C6.50163 19.8174 7.13168 20.6543 7.96188 20.6242C8.74627 20.5938 9.05372 20.1221 10.0072 20.1221C10.9599 20.1221 11.2369 20.6242 12.0672 20.609C12.9283 20.5938 13.4666 19.8486 13.9894 19.0877C14.5891 18.2213 14.8346 17.3847 14.8501 17.3387C14.8346 17.3235 13.1897 16.6997 13.1744 14.829C13.1589 13.2626 14.4659 12.5176 14.5274 12.4714C13.7893 11.3922 12.6361 11.2705 12.2363 11.2399Z" fill="black"/>
<path d="M21.2086 9.11963C23.4479 9.11963 25.0072 10.6457 25.0072 12.8674C25.0072 15.0971 23.4158 16.6311 21.1525 16.6311H18.6731V20.5291H16.8818V9.11963H21.2086V9.11963ZM18.6731 15.1446H20.7285C22.2881 15.1446 23.1758 14.3144 23.1758 12.8753C23.1758 11.4364 22.2881 10.6141 20.7366 10.6141H18.6731V15.1446Z" fill="black"/>
<path d="M25.4727 18.1651C25.4727 16.7102 26.6003 15.8168 28.5999 15.706L30.903 15.5717V14.9313C30.903 14.0062 30.2712 13.4527 29.2157 13.4527C28.2158 13.4527 27.5919 13.927 27.4401 14.6703H25.8086C25.9046 13.168 27.2001 12.061 29.2796 12.061C31.3189 12.061 32.6225 13.1285 32.6225 14.7968V20.5292H30.9669V19.1613H30.9271C30.4393 20.0864 29.3755 20.6715 28.2719 20.6715C26.6244 20.6715 25.4727 19.6594 25.4727 18.1651ZM30.903 17.414V16.7577L28.8316 16.8842C27.7999 16.9554 27.2161 17.4061 27.2161 18.1177C27.2161 18.845 27.8239 19.3195 28.7517 19.3195C29.9593 19.3195 30.903 18.4971 30.903 17.414Z" fill="black"/>
<path d="M34.1834 23.5893V22.2056C34.3111 22.2372 34.5989 22.2372 34.743 22.2372C35.5427 22.2372 35.9747 21.9051 36.2384 21.0512C36.2384 21.0354 36.3905 20.5452 36.3905 20.5373L33.3516 12.2114H35.2228L37.3504 18.9797H37.3822L39.5098 12.2114H41.3331L38.1819 20.9641C37.4624 22.9805 36.6306 23.6288 34.8871 23.6288C34.743 23.6288 34.3111 23.6129 34.1834 23.5893Z" fill="black"/>
</svg>
