<svg width="46" height="31" viewBox="0 0 46 31" fill="none" xmlns="http://www.w3.org/2000/svg">
<rect x="0.5" y="0.5" width="45" height="30" rx="4.5" fill="white"/>
<rect x="0.5" y="0.5" width="45" height="30" rx="4.5" stroke="#DDE4F9"/>
<path d="M22.0073 17.0469V21.2373H20.6533V10.8889H24.2444C24.6731 10.8801 25.0992 10.9547 25.4984 11.1085C25.8975 11.2623 26.2616 11.4921 26.5698 11.7848C26.8811 12.0596 27.1288 12.3968 27.2963 12.7735C27.4639 13.1502 27.5474 13.5577 27.5412 13.9687C27.5501 14.3819 27.4679 14.7921 27.3002 15.1712C27.1326 15.5503 26.8834 15.8894 26.5698 16.1651C25.9418 16.753 25.1667 17.0466 24.2444 17.0461H22.0073V17.0469ZM22.0073 12.1629V15.7753H24.2781C24.527 15.7826 24.7747 15.7387 25.0054 15.6466C25.2361 15.5545 25.4447 15.4161 25.6178 15.2403C25.79 15.0759 25.9268 14.8793 26.0203 14.6621C26.1138 14.4449 26.1619 14.2115 26.1619 13.9757C26.1619 13.7399 26.1138 13.5065 26.0203 13.2893C25.9268 13.0721 25.79 12.8756 25.6178 12.7112C25.4468 12.5317 25.239 12.3899 25.008 12.2952C24.7771 12.2006 24.5282 12.1552 24.2781 12.1621H22.0073V12.1629Z" fill="#5F6368"/>
<path d="M30.6621 13.9253C31.6629 13.9253 32.4529 14.1879 33.0321 14.713C33.6113 15.2381 33.9006 15.9582 33.9 16.873V21.2368H32.6049V20.2542H32.546C31.9853 21.0634 31.2396 21.468 30.3089 21.468C29.5144 21.468 28.8498 21.2368 28.3149 20.7744C28.0582 20.5622 27.853 20.2964 27.7142 19.9965C27.5754 19.6965 27.5065 19.3699 27.5126 19.0405C27.5126 18.3078 27.7946 17.7251 28.3586 17.2925C28.9227 16.8598 29.6756 16.6429 30.6176 16.6418C31.4216 16.6418 32.0837 16.7863 32.604 17.0753V16.7715C32.6056 16.5469 32.5562 16.3248 32.4594 16.1213C32.3627 15.9178 32.221 15.7379 32.0448 15.5948C31.6867 15.2777 31.2201 15.1046 30.7378 15.1102C29.9815 15.1102 29.383 15.4234 28.9423 16.0498L27.7497 15.3125C28.4057 14.3877 29.3765 13.9253 30.6621 13.9253ZM28.9103 19.0694C28.9094 19.2386 28.9497 19.4055 29.0278 19.5563C29.1059 19.7071 29.2196 19.8374 29.3594 19.9363C29.6589 20.1676 30.0306 20.2901 30.4115 20.2831C30.9829 20.2822 31.5306 20.0589 31.9346 19.6622C32.3831 19.2477 32.6074 18.7614 32.6074 18.2032C32.1852 17.8729 31.5965 17.7078 30.8413 17.7078C30.2913 17.7078 29.8326 17.838 29.4654 18.0984C29.0945 18.3626 28.9103 18.6838 28.9103 19.0694Z" fill="#5F6368"/>
<path d="M41.3338 14.1567L36.8125 24.3582H35.4148L37.0926 20.7887L34.1196 14.1567H35.5914L37.7402 19.243H37.7696L39.8595 14.1567H41.3338Z" fill="#5F6368"/>
<path d="M16.5383 16.1434C16.5388 15.7383 16.504 15.3338 16.4341 14.9346H10.7236V17.2242H13.9943C13.9274 17.5899 13.7857 17.9385 13.5779 18.249C13.37 18.5595 13.1003 18.8254 12.7849 19.0308V20.5171H14.7369C15.8798 19.4825 16.5383 17.9525 16.5383 16.1434Z" fill="#4285F4"/>
<path d="M10.7222 21.9527C12.3563 21.9527 13.7322 21.4259 14.7355 20.5176L12.7835 19.0314C12.2402 19.393 11.5405 19.5995 10.7222 19.5995C9.14279 19.5995 7.80223 18.5541 7.32285 17.1455H5.31201V18.6772C5.816 19.6618 6.58881 20.4895 7.54416 21.0679C8.49951 21.6463 9.5998 21.9526 10.7222 21.9527Z" fill="#34A853"/>
<path d="M7.32261 17.1457C7.06918 16.4075 7.06918 15.6082 7.32261 14.87V13.3384H5.31177C4.8878 14.1667 4.66699 15.0808 4.66699 16.0078C4.66699 16.9349 4.8878 17.849 5.31177 18.6773L7.32261 17.1457Z" fill="#FBBC04"/>
<path d="M10.7222 12.4161C11.5857 12.4023 12.4201 12.7226 13.0451 13.3079L14.7733 11.6111C13.6774 10.6005 12.2256 10.0457 10.7222 10.0629C9.5998 10.0629 8.49951 10.3693 7.54416 10.9477C6.58881 11.5261 5.816 12.3538 5.31201 13.3384L7.32286 14.8701C7.80223 13.4614 9.14279 12.4161 10.7222 12.4161Z" fill="#EA4335"/>
</svg>
