<svg width="46" height="31" viewBox="0 0 46 31" fill="none" xmlns="http://www.w3.org/2000/svg">
<rect x="0.5" y="0.5" width="45" height="30" rx="4.5" fill="white"/>
<rect x="0.5" y="0.5" width="45" height="30" rx="4.5" stroke="#DDE4F9"/>
<rect x="18.125" y="7.83301" width="8.62073" height="15.3349" fill="#FF5F00"/>
<path d="M18.677 15.5015C18.6738 12.5086 20.0615 9.68053 22.4401 7.83267C18.4006 4.6904 12.5997 5.1481 9.11416 8.88411C5.62861 12.6201 5.62861 18.3801 9.11416 22.1161C12.5997 25.8521 18.4006 26.3098 22.4401 23.1675C20.0623 21.3203 18.6747 18.4934 18.677 15.5015Z" fill="#EB001B"/>
<path d="M38.3761 15.5015C38.376 19.2353 36.2221 22.6412 32.8292 24.2728C29.4363 25.9044 25.4 25.4753 22.4346 23.1676C24.8113 21.3188 26.199 18.4923 26.199 15.5002C26.199 12.5081 24.8113 9.68159 22.4346 7.83275C25.4 5.5251 29.4363 5.09595 32.8292 6.72756C36.2221 8.35917 38.376 11.7651 38.3761 15.4988V15.5015Z" fill="#F79E1B"/>
</svg>
