<svg width="45" height="30" viewBox="0 0 45 30" fill="none" xmlns="http://www.w3.org/2000/svg">
<rect width="44" height="30" rx="4" fill="#006FCF"/>
<path fill-rule="evenodd" clip-rule="evenodd" d="M8.53206 22.0586V15.5661H15.855L16.6407 16.5276L17.4523 15.5661H44.0329V21.6109C44.0329 21.6109 43.3377 22.0521 42.5338 22.0586H27.8156L26.9298 21.0352V22.0586H24.027V20.3116C24.027 20.3116 23.6305 20.5554 22.7733 20.5554H21.7852V22.0586H17.3902L16.6057 21.0765L15.8091 22.0586H8.53206ZM0 10.6727L1.64761 7.05859H4.49698L5.43202 9.08305V7.05859H8.97405L9.53068 8.52181L10.0703 7.05859H25.9703V7.7942C25.9703 7.7942 26.8062 7.05859 28.1799 7.05859L33.3388 7.07556L34.2577 9.07352V7.05859H37.2219L38.0377 8.20626V7.05859H41.0291V13.5511H38.0377L37.2559 12.3997V13.5511H32.9009L32.4629 12.5277H31.2922L30.8613 13.5511H27.9079C26.7259 13.5511 25.9703 12.8305 25.9703 12.8305V13.5511H21.5173L20.6335 12.5277V13.5511H4.07486L3.63721 12.5277H2.47017L2.03561 13.5511H0V10.6727ZM0.00757999 12.7204L2.22985 7.85896H3.9146L6.13475 12.7204H4.65607L4.24816 11.7469H1.86443L1.45439 12.7204H0.00757999ZM3.77749 10.6915L3.0509 8.99037L2.32218 10.6915H3.77749ZM6.28792 12.7196V7.85818L8.34392 7.86536L9.53975 10.9997L10.707 7.85818H12.7465V12.7196H11.4548V9.1375L10.0855 12.7196H8.95271L7.57964 9.1375V12.7196H6.28792ZM13.6311 12.7196V7.85818H17.8461V8.9456H14.9364V9.77716H17.7781V10.8006H14.9364V11.6642H17.8461V12.7196H13.6311ZM18.5939 12.7204V7.85896H21.4684C22.4209 7.85896 23.2743 8.41311 23.2743 9.43612C23.2743 10.3107 22.5547 10.8739 21.8572 10.9293L23.5568 12.7204H21.9783L20.4295 10.9933H19.8856V12.7204H18.5939ZM21.3624 8.94638H19.8858V9.96984H21.3815C21.6404 9.96984 21.9742 9.78108 21.9742 9.45811C21.9742 9.20707 21.7166 8.94638 21.3624 8.94638ZM25.1209 12.7196H23.8019V7.85818H25.1209V12.7196ZM28.2482 12.7196H27.9635C26.5861 12.7196 25.7498 11.6985 25.7498 10.3089C25.7498 8.88488 26.5767 7.85818 28.3162 7.85818H29.7439V9.00957H28.264C27.5579 9.00957 27.0585 9.52806 27.0585 10.3209C27.0585 11.2623 27.6295 11.6578 28.4522 11.6578H28.7921L28.2482 12.7196ZM28.8382 12.7204L31.0605 7.85896H32.7452L34.9654 12.7204H33.4867L33.0788 11.7469H30.6951L30.285 12.7204H28.8382ZM32.6081 10.6915L31.8815 8.99037L31.1528 10.6915H32.6081ZM35.1148 12.7196V7.85818H36.757L38.854 10.9126V7.85818H40.1457V12.7196H38.5565L36.4065 9.58526V12.7196H35.1148ZM9.41562 21.227V16.3656H13.6307V17.453H10.7209V18.2846H13.5627V19.308H10.7209V20.1716H13.6307V21.227H9.41562ZM30.07 21.227V16.3656H34.2851V17.453H31.3753V18.2846H34.2035V19.308H31.3753V20.1716H34.2851V21.227H30.07ZM13.7937 21.227L15.8461 18.8263L13.7449 16.3656H15.3723L16.6236 17.8868L17.8792 16.3656H19.4429L17.3693 18.7963L19.4254 21.227H17.7983L16.5833 19.7298L15.3978 21.227H13.7937ZM19.5786 21.2279V16.3665H22.4318C23.6026 16.3665 24.2865 17.0764 24.2865 18.0016C24.2865 19.1184 23.4145 19.6927 22.264 19.6927H20.9043V21.2279H19.5786ZM22.3367 17.4659H20.9048V18.5853H22.3325C22.7098 18.5853 22.9741 18.35 22.9741 18.0256C22.9741 17.6802 22.7084 17.4659 22.3367 17.4659ZM24.8502 21.2271V16.3656H27.7247C28.6771 16.3656 29.5305 16.9198 29.5305 17.9428C29.5305 18.8173 28.811 19.3806 28.1135 19.436L29.8131 21.2271H28.2346L26.6858 19.5H26.1419V21.2271H24.8502ZM27.6186 17.4531H26.1421V18.4765H27.6378C27.8967 18.4765 28.2305 18.2878 28.2305 17.9648C28.2305 17.7137 27.9728 17.4531 27.6186 17.4531ZM34.8831 21.227V20.1716H37.4682C37.8507 20.1716 38.0163 19.9771 38.0163 19.7638C38.0163 19.5594 37.8512 19.3528 37.4682 19.3528H36.3C35.2846 19.3528 34.7191 18.7707 34.7191 17.8968C34.7191 17.1173 35.2369 16.3656 36.7459 16.3656H39.2613L38.7174 17.4594H36.5419C36.1261 17.4594 35.998 17.6647 35.998 17.8608C35.998 18.0623 36.1562 18.2846 36.4739 18.2846H37.6977C38.8296 18.2846 39.3208 18.8887 39.3208 19.6798C39.3208 20.5304 38.7735 21.227 37.636 21.227H34.8831ZM39.4346 21.227V20.1716H42.0197C42.4022 20.1716 42.5679 19.9771 42.5679 19.7638C42.5679 19.5594 42.4028 19.3528 42.0197 19.3528H40.8515C39.8361 19.3528 39.2706 18.7707 39.2706 17.8968C39.2706 17.1173 39.7885 16.3656 41.2974 16.3656H43.8128L43.269 17.4594H41.0934C40.6776 17.4594 40.5496 17.6647 40.5496 17.8608C40.5496 18.0623 40.7078 18.2846 41.0255 18.2846H42.2492C43.3811 18.2846 43.8723 18.8887 43.8723 19.6798C43.8723 20.5304 43.325 21.227 42.1876 21.227H39.4346Z" fill="white"/>
</svg>
