<svg width="46" height="31" viewBox="0 0 46 31" fill="none" xmlns="http://www.w3.org/2000/svg">
<g clip-path="url(#clip0_6003_16222)">
<rect x="1" y="1" width="44" height="29" rx="4" fill="white"/>
<path d="M29.5913 17.1128L31.1753 13.2163H32.4146L29.8823 19.1665H29.2671L26.7798 13.2163H28.0288L29.5913 17.1128ZM13.7173 13.1206C14.3597 13.1207 14.9475 13.3387 15.439 13.7642L14.8413 14.5386C14.5437 14.2084 14.2616 14.069 13.9194 14.0688C13.4267 14.0688 13.0679 14.3471 13.0679 14.7124C13.0679 15.0259 13.2687 15.1917 13.9546 15.4429C15.2549 15.9137 15.6401 16.3307 15.6401 17.2524C15.6401 18.3752 14.8073 19.1576 13.6196 19.1577C12.7499 19.1577 12.1169 18.8183 11.5903 18.0532L12.3286 17.3491C12.5917 17.8528 13.0315 18.1226 13.5767 18.1226C14.0866 18.1224 14.4634 17.774 14.4634 17.3042C14.4633 17.0607 14.349 16.8513 14.1206 16.7036C14.0056 16.6337 13.7776 16.5297 13.3306 16.3735C12.2571 15.9912 11.8892 15.5819 11.8892 14.7827C11.8893 13.8334 12.6803 13.1206 13.7173 13.1206ZM19.1226 13.0854C19.6145 13.0855 20.0272 13.19 20.5288 13.4419V14.7729C20.0535 14.3128 19.6404 14.1206 19.0952 14.1206C18.0229 14.1207 17.1802 14.9992 17.1802 16.1128C17.1802 17.2876 17.9976 18.1138 19.1489 18.1138C19.667 18.1137 20.072 17.9306 20.5288 17.478V18.8101C20.0092 19.0523 19.5872 19.1479 19.0952 19.1479C17.3546 19.1479 16.0017 17.8265 16.0015 16.1216C16.0015 14.4349 17.3906 13.0854 19.1226 13.0854ZM11.1597 19.0181H10.0171V13.2163H11.1597V19.0181ZM36.1733 14.1997H34.0737V15.4868H36.0962V16.4692H34.0737V18.0356H36.1733V19.0181H32.9312V13.2163H36.1733V14.1997ZM6.34424 13.2163C8.19821 13.2163 9.49072 14.4095 9.49072 16.1216C9.49062 16.9751 9.09482 17.8007 8.42627 18.3481C7.8637 18.8105 7.22281 19.0171 6.33545 19.0171H4.6665V13.2163H6.34424ZM38.6245 13.2163C39.9427 13.2163 40.6987 13.8431 40.6987 14.9292C40.6987 15.8172 40.2246 16.4004 39.3638 16.5737L41.2085 19.0171H39.8022L38.2202 16.687H38.0708V19.0171H36.9292V13.2163H38.6245ZM5.80811 18.0356H6.11475C6.8532 18.0356 7.32012 17.8957 7.6792 17.5747C8.07453 17.2264 8.312 16.6697 8.31201 16.1128C8.31201 15.5572 8.07454 15.0167 7.6792 14.6685C7.3018 14.3302 6.8532 14.1997 6.11475 14.1997H5.80811V18.0356ZM38.0708 14.1304V15.8872H38.4048C39.135 15.8872 39.522 15.5729 39.522 14.9897C39.5218 14.4254 39.1353 14.1304 38.4233 14.1304H38.0708Z" fill="#1D1D1B"/>
<path fill-rule="evenodd" clip-rule="evenodd" d="M26.6465 17.7999C27.5743 16.3638 27.1506 14.456 25.6999 13.5377C24.2492 12.6194 22.3214 13.0387 21.3935 14.4747C20.4659 15.9104 20.8898 17.8189 22.3405 18.7372C23.7912 19.6555 25.7189 19.2356 26.6465 17.7999Z" fill="url(#paint0_linear_6003_16222)"/>
<path d="M19.3335 30.2673H43.8205C44.4724 30.2673 45.0002 29.7461 45.0002 29.1022V20.9214C42.6494 22.3931 33.7881 27.466 19.3335 30.2701V30.2673Z" fill="#F58220"/>
</g>
<rect x="0.5" y="0.5" width="45" height="30" rx="4.5" stroke="#DDE4F9"/>
<defs>
<linearGradient id="paint0_linear_6003_16222" x1="28.3262" y1="15.2002" x2="23.1046" y2="11.8265" gradientUnits="userSpaceOnUse">
<stop stop-color="#F6A000"/>
<stop offset="0.623918" stop-color="#E47E02"/>
<stop offset="1" stop-color="#D36002"/>
</linearGradient>
<clipPath id="clip0_6003_16222">
<rect x="1" y="1" width="44" height="29" rx="4" fill="white"/>
</clipPath>
</defs>
</svg>
