<svg width="46" height="31" viewBox="0 0 46 31" fill="none" xmlns="http://www.w3.org/2000/svg">
<g clip-path="url(#clip0_6571_12703)">
<path d="M41 0.5H5C2.51472 0.5 0.5 2.51472 0.5 5V26C0.5 28.4853 2.51472 30.5 5 30.5H41C43.4853 30.5 45.5 28.4853 45.5 26V5C45.5 2.51472 43.4853 0.5 41 0.5Z" fill="white"/>
<path d="M32.7441 4C30.6485 4 28.9301 5.70761 28.9301 7.83685V11.8213H34.3157C34.4415 11.8213 34.5882 11.8213 34.6929 11.8423C35.9084 11.9056 36.8095 12.538 36.8095 13.6343C36.8095 14.4986 36.2017 15.2365 35.0701 15.384V15.4262C36.3065 15.5105 37.2495 16.2062 37.2495 17.2814C37.2495 18.4409 36.2018 19.1998 34.8187 19.1998H28.9092V27H34.5043C36.5999 27 38.3183 25.2924 38.3183 23.1632V4H32.7441Z" fill="url(#paint0_linear_6571_12703)"/>
<path d="M30.7953 17.9771H32.9957C33.0271 17.9771 33.0795 17.9718 33.1319 17.9665C33.1843 17.9613 33.2367 17.956 33.2681 17.956C33.6872 17.8717 34.0435 17.4922 34.0435 16.9652C34.0435 16.4592 33.6872 16.0797 33.2681 15.9743C33.2052 15.9533 33.0795 15.9533 32.9957 15.9533H30.7953V17.9771Z" fill="url(#paint1_linear_6571_12703)"/>
<path d="M32.9957 12.9808C33.4148 13.044 33.771 13.3813 33.771 13.8873C33.771 14.3932 33.4148 14.7305 32.9957 14.7938C32.9747 14.8149 32.849 14.8149 32.7861 14.8149H30.7953V12.9597H32.7861C32.8207 12.9597 32.868 12.9661 32.9106 12.9718C32.9453 12.9765 32.9768 12.9808 32.9957 12.9808Z" fill="url(#paint2_linear_6571_12703)"/>
<path d="M11.8349 4C9.73932 4 8.02096 5.70917 8.02096 7.84037V17.3147C9.08969 17.8422 10.2003 18.1798 11.311 18.1798C12.6312 18.1798 13.3437 17.378 13.3437 16.2807V11.8073H16.6128V16.2596C16.6128 17.9899 15.544 19.4037 11.9187 19.4037C9.71836 19.4037 8 18.9183 8 18.9183V27H13.5952C15.6907 27 17.4091 25.2908 17.4091 23.1596V4H11.8349Z" fill="url(#paint3_linear_6571_12703)"/>
<path d="M22.268 4C20.1725 4 18.4541 5.70604 18.4541 7.83333V12.8462C19.4181 12.0247 21.0945 11.4982 23.7978 11.6245C25.2437 11.6877 26.7945 12.0879 26.7945 12.0879V13.7097C26.0191 13.3095 25.097 12.9515 23.9026 12.8672C21.8489 12.7198 20.6125 13.7308 20.6125 15.5C20.6125 17.2903 21.8489 18.3013 23.9026 18.1328C25.097 18.0485 26.0191 17.6694 26.7945 17.2903V18.9121C26.7945 18.9121 25.2647 19.3123 23.7978 19.3755C21.0945 19.5018 19.4181 18.9753 18.4541 18.1538V27H24.0493C26.1448 27 27.8632 25.294 27.8632 23.1667V4H22.268Z" fill="url(#paint4_linear_6571_12703)"/>
<path d="M41 0.5H5C2.51472 0.5 0.5 2.51472 0.5 5V26C0.5 28.4853 2.51472 30.5 5 30.5H41C43.4853 30.5 45.5 28.4853 45.5 26V5C45.5 2.51472 43.4853 0.5 41 0.5Z" stroke="#DDE4F9"/>
</g>
<defs>
<linearGradient id="paint0_linear_6571_12703" x1="28.9265" y1="13.8846" x2="38.3438" y2="13.8846" gradientUnits="userSpaceOnUse">
<stop stop-color="#007940"/>
<stop offset="0.2285" stop-color="#00873F"/>
<stop offset="0.7433" stop-color="#40A737"/>
<stop offset="1" stop-color="#5CB531"/>
</linearGradient>
<linearGradient id="paint1_linear_6571_12703" x1="28.9265" y1="13.8846" x2="38.3438" y2="13.8846" gradientUnits="userSpaceOnUse">
<stop stop-color="#007940"/>
<stop offset="0.2285" stop-color="#00873F"/>
<stop offset="0.7433" stop-color="#40A737"/>
<stop offset="1" stop-color="#5CB531"/>
</linearGradient>
<linearGradient id="paint2_linear_6571_12703" x1="28.9265" y1="13.8846" x2="38.3438" y2="13.8846" gradientUnits="userSpaceOnUse">
<stop stop-color="#007940"/>
<stop offset="0.2285" stop-color="#00873F"/>
<stop offset="0.7433" stop-color="#40A737"/>
<stop offset="1" stop-color="#5CB531"/>
</linearGradient>
<linearGradient id="paint3_linear_6571_12703" x1="8.01652" y1="15.5013" x2="17.5792" y2="15.5013" gradientUnits="userSpaceOnUse">
<stop stop-color="#1F286F"/>
<stop offset="0.4751" stop-color="#004E94"/>
<stop offset="0.8261" stop-color="#0066B1"/>
<stop offset="1" stop-color="#006FBC"/>
</linearGradient>
<linearGradient id="paint4_linear_6571_12703" x1="18.3999" y1="15.4803" x2="27.6875" y2="15.4803" gradientUnits="userSpaceOnUse">
<stop stop-color="#6C2C2F"/>
<stop offset="0.1735" stop-color="#882730"/>
<stop offset="0.5731" stop-color="#BE1833"/>
<stop offset="0.8585" stop-color="#DC0436"/>
<stop offset="1" stop-color="#E60039"/>
</linearGradient>
<clipPath id="clip0_6571_12703">
<rect width="46" height="31" fill="white"/>
</clipPath>
</defs>
</svg>
