<svg width="44" height="30" viewBox="0 0 44 30" fill="none" xmlns="http://www.w3.org/2000/svg">
<rect width="44" height="30" rx="4" fill="#3957A7"/>
<path d="M19.8119 20.9836H16.9375L18.7334 9.9209H21.6077L19.8119 20.9836Z" fill="white"/>
<path d="M14.5228 9.9209L11.7844 17.5327L11.4609 15.8918L10.495 10.9176C10.495 10.9176 10.3777 9.9209 9.13046 9.9209H4.6009L4.54932 10.109C4.54932 10.109 5.93257 10.3958 7.55496 11.3737L10.0495 20.9883H13.0411L17.6128 9.9256H14.5181L14.5228 9.9209Z" fill="white"/>
<path d="M37.1185 20.9836H39.7537L37.4561 9.9209H35.1445C34.0754 9.9209 33.8175 10.7437 33.8175 10.7437L29.5317 20.9836H32.528L33.1282 19.3381H36.7809L37.1185 20.9836ZM33.9581 17.0719L35.468 12.9299L36.3167 17.0719H33.9581Z" fill="white"/>
<path d="M29.7621 12.5822L30.17 10.2079C30.17 10.2079 28.904 9.72363 27.5864 9.72363C26.1609 9.72363 22.7755 10.3489 22.7755 13.3861C22.7755 16.2447 26.7517 16.2823 26.7517 17.7821C26.7517 19.2818 23.1881 19.0139 22.0112 18.0688L21.5845 20.5513C21.5845 20.5513 22.8693 21.1766 24.8293 21.1766C26.7893 21.1766 29.748 20.1563 29.748 17.3871C29.748 14.6179 25.7389 14.2418 25.7389 12.9912C25.7389 11.7406 28.5382 11.9004 29.7668 12.5822H29.7621Z" fill="white"/>
<path d="M11.4399 15.8825L10.456 10.7371C10.456 10.7371 10.3366 9.70605 9.06617 9.70605H4.45244L4.3999 9.90059C4.3999 9.90059 6.61602 10.3675 8.74139 12.1183C10.776 13.7961 11.4351 15.8825 11.4351 15.8825H11.4399Z" fill="#F9A533"/>
</svg>
