<svg width="34" height="26" viewBox="0 0 34 26" fill="none" xmlns="http://www.w3.org/2000/svg">
<g clip-path="url(#clip0_6021_64252)">
<rect x="1" y="1" width="32" height="24" fill="white"/>
<path fill-rule="evenodd" clip-rule="evenodd" d="M1 1H33V25H1V1Z" fill="#F7FCFF"/>
<path fill-rule="evenodd" clip-rule="evenodd" d="M1 15.6667V17.6667H33V15.6667H1Z" fill="#E31D1C"/>
<path fill-rule="evenodd" clip-rule="evenodd" d="M1 19.3333V21.3333H33V19.3333H1Z" fill="#E31D1C"/>
<path fill-rule="evenodd" clip-rule="evenodd" d="M1 8.33331V10.3333H33V8.33331H1Z" fill="#E31D1C"/>
<path fill-rule="evenodd" clip-rule="evenodd" d="M1 23V25H33V23H1Z" fill="#E31D1C"/>
<path fill-rule="evenodd" clip-rule="evenodd" d="M1 12V14H33V12H1Z" fill="#E31D1C"/>
<path fill-rule="evenodd" clip-rule="evenodd" d="M1 1V3H33V1H1Z" fill="#E31D1C"/>
<path fill-rule="evenodd" clip-rule="evenodd" d="M1 4.66669V6.66669H33V4.66669H1Z" fill="#E31D1C"/>
<rect x="1" y="1" width="20" height="13" fill="#2E42A5"/>
<path d="M3.05255 10.9682H3.77032L3.20587 11.5414L3.42462 12.4477L2.72247 11.9389L1.99591 12.4477L2.24103 11.5414L1.5965 10.9682H2.43829L2.7215 10.2289L3.05255 10.9682ZM7.05255 10.9682H7.77032L7.20587 11.5414L7.42462 12.4477L6.72247 11.9389L5.99591 12.4477L6.24103 11.5414L5.5965 10.9682H6.43829L6.7215 10.2289L7.05255 10.9682ZM11.0526 10.9682H11.7703L11.2059 11.5414L11.4246 12.4477L10.7225 11.9389L9.99591 12.4477L10.241 11.5414L9.5965 10.9682H10.4383L10.7215 10.2289L11.0526 10.9682ZM15.0526 10.9682H15.7703L15.2059 11.5414L15.4246 12.4477L14.7225 11.9389L13.9959 12.4477L14.241 11.5414L13.5965 10.9682H14.4383L14.7215 10.2289L15.0526 10.9682ZM19.0526 10.9682H19.7703L19.2059 11.5414L19.4246 12.4477L18.7225 11.9389L17.9959 12.4477L18.241 11.5414L17.5965 10.9682H18.4383L18.7215 10.2289L19.0526 10.9682ZM5.05255 8.9682H5.77032L5.20587 9.54144L5.42462 10.4477L4.72247 9.9389L3.99591 10.4477L4.24103 9.54144L3.5965 8.9682H4.43829L4.7215 8.22894L5.05255 8.9682ZM9.05255 8.9682H9.77032L9.20587 9.54144L9.42462 10.4477L8.72247 9.9389L7.99591 10.4477L8.24103 9.54144L7.5965 8.9682H8.43829L8.7215 8.22894L9.05255 8.9682ZM13.0526 8.9682H13.7703L13.2059 9.54144L13.4246 10.4477L12.7225 9.9389L11.9959 10.4477L12.241 9.54144L11.5965 8.9682H12.4383L12.7215 8.22894L13.0526 8.9682ZM17.0526 8.9682H17.7703L17.2059 9.54144L17.4246 10.4477L16.7225 9.9389L15.9959 10.4477L16.241 9.54144L15.5965 8.9682H16.4383L16.7215 8.22894L17.0526 8.9682ZM3.05255 6.9682H3.77032L3.20587 7.54144L3.42462 8.44769L2.72247 7.9389L1.99591 8.44769L2.24103 7.54144L1.5965 6.9682H2.43829L2.7215 6.22894L3.05255 6.9682ZM7.05255 6.9682H7.77032L7.20587 7.54144L7.42462 8.44769L6.72247 7.9389L5.99591 8.44769L6.24103 7.54144L5.5965 6.9682H6.43829L6.7215 6.22894L7.05255 6.9682ZM11.0526 6.9682H11.7703L11.2059 7.54144L11.4246 8.44769L10.7225 7.9389L9.99591 8.44769L10.241 7.54144L9.5965 6.9682H10.4383L10.7215 6.22894L11.0526 6.9682ZM15.0526 6.9682H15.7703L15.2059 7.54144L15.4246 8.44769L14.7225 7.9389L13.9959 8.44769L14.241 7.54144L13.5965 6.9682H14.4383L14.7215 6.22894L15.0526 6.9682ZM19.0526 6.9682H19.7703L19.2059 7.54144L19.4246 8.44769L18.7225 7.9389L17.9959 8.44769L18.241 7.54144L17.5965 6.9682H18.4383L18.7215 6.22894L19.0526 6.9682ZM5.05255 4.9682H5.77032L5.20587 5.54144L5.42462 6.44769L4.72247 5.9389L3.99591 6.44769L4.24103 5.54144L3.5965 4.9682H4.43829L4.7215 4.22894L5.05255 4.9682ZM9.05255 4.9682H9.77032L9.20587 5.54144L9.42462 6.44769L8.72247 5.9389L7.99591 6.44769L8.24103 5.54144L7.5965 4.9682H8.43829L8.7215 4.22894L9.05255 4.9682ZM13.0526 4.9682H13.7703L13.2059 5.54144L13.4246 6.44769L12.7225 5.9389L11.9959 6.44769L12.241 5.54144L11.5965 4.9682H12.4383L12.7215 4.22894L13.0526 4.9682ZM17.0526 4.9682H17.7703L17.2059 5.54144L17.4246 6.44769L16.7225 5.9389L15.9959 6.44769L16.241 5.54144L15.5965 4.9682H16.4383L16.7215 4.22894L17.0526 4.9682ZM3.05255 2.9682H3.77032L3.20587 3.54144L3.42462 4.44769L2.72247 3.9389L1.99591 4.44769L2.24103 3.54144L1.5965 2.9682H2.43829L2.7215 2.22894L3.05255 2.9682ZM7.05255 2.9682H7.77032L7.20587 3.54144L7.42462 4.44769L6.72247 3.9389L5.99591 4.44769L6.24103 3.54144L5.5965 2.9682H6.43829L6.7215 2.22894L7.05255 2.9682ZM11.0526 2.9682H11.7703L11.2059 3.54144L11.4246 4.44769L10.7225 3.9389L9.99591 4.44769L10.241 3.54144L9.5965 2.9682H10.4383L10.7215 2.22894L11.0526 2.9682ZM15.0526 2.9682H15.7703L15.2059 3.54144L15.4246 4.44769L14.7225 3.9389L13.9959 4.44769L14.241 3.54144L13.5965 2.9682H14.4383L14.7215 2.22894L15.0526 2.9682ZM19.0526 2.9682H19.7703L19.2059 3.54144L19.4246 4.44769L18.7225 3.9389L17.9959 4.44769L18.241 3.54144L17.5965 2.9682H18.4383L18.7215 2.22894L19.0526 2.9682Z" fill="#F7FCFF"/>
</g>
<rect x="0.5" y="0.5" width="33" height="25" stroke="#DDE4F9"/>
<defs>
<clipPath id="clip0_6021_64252">
<rect x="1" y="1" width="32" height="24" fill="white"/>
</clipPath>
</defs>
</svg>
