<svg width="34" height="26" viewBox="0 0 34 26" fill="none" xmlns="http://www.w3.org/2000/svg">
<g clip-path="url(#clip0_6021_64297)">
<mask id="mask0_6021_64297" style="mask-type:luminance" maskUnits="userSpaceOnUse" x="1" y="1" width="32" height="24">
<path d="M33 1H1V25H33V1Z" fill="white"/>
</mask>
<g mask="url(#mask0_6021_64297)">
<path d="M33 1H1V25H33V1Z" fill="white"/>
<path fill-rule="evenodd" clip-rule="evenodd" d="M1 1H33V25H1V1Z" fill="#F7FCFF"/>
<path d="M33 19.9004H1V16.9434H33V19.9004ZM33 14.7715H1V11.8154H33V14.7715ZM33 9.45703H1V6.5H33V9.45703Z" fill="#4564F9"/>
<path fill-rule="evenodd" clip-rule="evenodd" d="M1 1H33V4H1V1Z" fill="#4564F9"/>
<path d="M33 22H1V25H33V22Z" fill="#4564F9"/>
<path fill-rule="evenodd" clip-rule="evenodd" d="M1 1H16V14.8H1V1Z" fill="#4564F9"/>
<path fill-rule="evenodd" clip-rule="evenodd" d="M7 1H10V6.50386H16V9.43867H10V15.5H7V9.43867H1V6.50386H7V1Z" fill="#F7FCFF"/>
</g>
</g>
<rect x="0.5" y="0.5" width="33" height="25" stroke="#DDE4F9"/>
<defs>
<clipPath id="clip0_6021_64297">
<rect x="1" y="1" width="32" height="24" fill="white"/>
</clipPath>
</defs>
</svg>
