<svg width="34" height="26" viewBox="0 0 34 26" fill="none" xmlns="http://www.w3.org/2000/svg">
<g clip-path="url(#clip0_6021_64333)">
<mask id="mask0_6021_64333" style="mask-type:luminance" maskUnits="userSpaceOnUse" x="1" y="1" width="32" height="24">
<path d="M33 1H1V25H33V1Z" fill="white"/>
</mask>
<g mask="url(#mask0_6021_64333)">
<path d="M33 1H1V25H33V1Z" fill="white"/>
<path fill-rule="evenodd" clip-rule="evenodd" d="M1 1V25H33V1H1Z" fill="#F7FCFF"/>
<mask id="mask1_6021_64333" style="mask-type:luminance" maskUnits="userSpaceOnUse" x="1" y="1" width="32" height="24">
<path fill-rule="evenodd" clip-rule="evenodd" d="M1 1V25H33V1H1Z" fill="white"/>
</mask>
<g mask="url(#mask1_6021_64333)">
<path fill-rule="evenodd" clip-rule="evenodd" d="M17 20.5C21.1421 20.5 24.5 17.1421 24.5 13C24.5 8.85786 21.1421 5.5 17 5.5C12.8579 5.5 9.5 8.85786 9.5 13C9.5 17.1421 12.8579 20.5 17 20.5Z" fill="#E31D1C"/>
</g>
</g>
</g>
<rect x="0.5" y="0.5" width="33" height="25" stroke="#DDE4F9"/>
<defs>
<clipPath id="clip0_6021_64333">
<rect x="1" y="1" width="32" height="24" fill="white"/>
</clipPath>
</defs>
</svg>
