<svg width="34" height="26" viewBox="0 0 34 26" fill="none" xmlns="http://www.w3.org/2000/svg">
<g clip-path="url(#clip0_6021_64345)">
<mask id="mask0_6021_64345" style="mask-type:luminance" maskUnits="userSpaceOnUse" x="1" y="1" width="32" height="24">
<path d="M33 1H1V25H33V1Z" fill="white"/>
</mask>
<g mask="url(#mask0_6021_64345)">
<path d="M33 1H1V25H33V1Z" fill="white"/>
<path fill-rule="evenodd" clip-rule="evenodd" d="M1 1V25H33V1H1Z" fill="#F7FCFF"/>
<mask id="mask1_6021_64345" style="mask-type:luminance" maskUnits="userSpaceOnUse" x="1" y="1" width="32" height="24">
<path fill-rule="evenodd" clip-rule="evenodd" d="M1 1V25H33V1H1Z" fill="white"/>
</mask>
<g mask="url(#mask1_6021_64345)">
<path fill-rule="evenodd" clip-rule="evenodd" d="M17.0002 19.2195C20.2029 19.2195 22.7993 16.4623 22.7993 13.061C22.7993 9.65974 20.2029 6.90247 17.0002 6.90247C13.7975 6.90247 11.2012 9.65974 11.2012 13.061C11.2012 16.4623 13.7975 19.2195 17.0002 19.2195Z" fill="#3D58DB"/>
<mask id="mask2_6021_64345" style="mask-type:luminance" maskUnits="userSpaceOnUse" x="11" y="6" width="12" height="14">
<path fill-rule="evenodd" clip-rule="evenodd" d="M17.0002 19.2195C20.2029 19.2195 22.7993 16.4623 22.7993 13.061C22.7993 9.65974 20.2029 6.90247 17.0002 6.90247C13.7975 6.90247 11.2012 9.65974 11.2012 13.061C11.2012 16.4623 13.7975 19.2195 17.0002 19.2195Z" fill="white"/>
</mask>
<g mask="url(#mask2_6021_64345)">
<path fill-rule="evenodd" clip-rule="evenodd" d="M23.0019 13.5328C23.0019 13.5328 22.6764 10.6288 20.2657 10.4712C17.8551 10.3135 17.2051 12.6007 17.066 13.2067C16.9269 13.8127 16.5748 15.4292 14.0366 15.4292C11.4985 15.4292 11.2695 11.3188 11.2695 11.3188V6.47192H23.0019V13.5328Z" fill="#E31D1C"/>
</g>
<path d="M12.2251 6.57458L8.12549 11.4916L7.21045 10.6644L11.3101 5.74646L12.2251 6.57458ZM10.7231 5.21912L6.63525 10.099L5.72021 9.27185L9.80811 4.39099L10.7231 5.21912ZM9.21436 3.87927L4.97412 8.83142L4.05908 8.00427L8.29932 3.05212L9.21436 3.87927Z" fill="#272727"/>
<path d="M25.2495 9.63977L26.8374 11.5021L27.7524 10.6779L26.1646 8.81458L25.2495 9.63977ZM23.9956 4.83118L28.4146 10.212L29.3296 9.38782L24.9106 4.00696L23.9956 4.83118ZM28.27 6.95618L29.8579 8.81946L30.7729 7.99426L29.1851 6.13196L28.27 6.95618ZM22.4282 6.21301L24.0151 8.07532L24.9312 7.2511L23.3433 5.38879L22.4282 6.21301ZM25.4487 3.52942L27.0366 5.3927L27.9517 4.56848L26.3638 2.7052L25.4487 3.52942Z" fill="#272727"/>
<path d="M27.4092 21.228L25.8086 23.0981L24.8857 22.27L26.4863 20.3999L27.4092 21.228ZM25.8896 19.8062L24.2188 21.8022L23.2959 20.9751L24.9668 18.978L25.8896 19.8062ZM24.3633 18.5347L22.7627 20.4038L21.8398 19.5767L23.4404 17.7065L24.3633 18.5347ZM29.9688 17.8608L28.3682 19.731L27.4453 18.9028L29.0459 17.0327L29.9688 17.8608ZM28.6309 16.478L26.96 18.4751L26.0371 17.6479L27.708 15.6509L28.6309 16.478ZM27.0547 15.2437L25.4541 17.1128L24.5312 16.2856L26.1318 14.4155L27.0547 15.2437Z" fill="#272727"/>
<path d="M4.39453 18.5157L8.5 23.2599L9.41504 22.4337L5.30957 17.6906L4.39453 18.5157ZM8.35938 19.9835L10.085 21.879L11 21.0538L9.27441 19.1583L8.35938 19.9835ZM7.40625 15.8898L11.4912 20.5704L12.4062 19.7452L8.32129 15.0646L7.40625 15.8898ZM5.96094 17.1525L7.45605 18.9064L8.37109 18.0812L6.87598 16.3273L5.96094 17.1525Z" fill="#272727"/>
</g>
</g>
</g>
<rect x="0.5" y="0.5" width="33" height="25" stroke="#DDE4F9"/>
<defs>
<clipPath id="clip0_6021_64345">
<rect x="1" y="1" width="32" height="24" fill="white"/>
</clipPath>
</defs>
</svg>
