<svg width="34" height="26" viewBox="0 0 34 26" fill="none" xmlns="http://www.w3.org/2000/svg">
<g clip-path="url(#clip0_6021_64254)">
<rect x="1" y="1" width="32" height="24" fill="white"/>
<path fill-rule="evenodd" clip-rule="evenodd" d="M9 1H33V25H9V1Z" fill="#EF0000"/>
<path fill-rule="evenodd" clip-rule="evenodd" d="M1 1H13V25H1V1Z" fill="#2F8D00"/>
<mask id="mask0_6021_64254" style="mask-type:luminance" maskUnits="userSpaceOnUse" x="5" y="5" width="16" height="16">
<path fill-rule="evenodd" clip-rule="evenodd" d="M12.9048 20.8072C8.64429 20.8072 5.19049 17.3118 5.19049 13C5.19049 8.68816 8.64429 5.19275 12.9048 5.19275C17.1653 5.19275 20.6191 8.68816 20.6191 13C20.6191 17.3118 17.1653 20.8072 12.9048 20.8072Z" fill="white"/>
</mask>
<g mask="url(#mask0_6021_64254)">
<path fill-rule="evenodd" clip-rule="evenodd" d="M12.4286 5H13.4286V7.6988H12.4286V5Z" fill="#FFE017"/>
<path fill-rule="evenodd" clip-rule="evenodd" d="M12.4286 18.494H13.4286V21H12.4286V18.494Z" fill="#FFE017"/>
<path d="M5.31446 13.4038L5.03488 12.6865C8.12007 11.4548 10.4486 10.6605 12.0286 10.3025C14.3467 9.77732 16.8938 9.38873 19.67 9.13647L19.7381 9.90447C16.9938 10.1538 14.4794 10.5374 12.1951 11.055C10.6621 11.4023 8.36589 12.1856 5.31446 13.4038Z" fill="#FFE017"/>
<path d="M20.1409 8.66384L19.914 9.39994C17.5823 8.66383 15.6828 8.34741 14.2228 8.44542L14.1724 7.67603C15.74 7.5708 17.7271 7.90183 20.1409 8.66384Z" fill="#FFE017"/>
<path d="M20.9477 12.7798L20.5167 13.4156C19.328 12.5903 17.8635 12.1758 16.1133 12.1758V11.4047C18.0107 11.4047 19.6255 11.8618 20.9477 12.7798Z" fill="#FFE017"/>
<path d="M20.302 13.0106L20.499 13.7554C17.9364 14.4496 15.5304 14.8434 13.281 14.9361C11.016 15.0295 8.37616 14.6343 5.35913 13.7534L5.57031 13.0126C8.51402 13.872 11.0747 14.2554 13.25 14.1657C15.4408 14.0754 17.7915 13.6906 20.302 13.0106Z" fill="#FFE017"/>
<path d="M20.0117 16.6359L18.8074 17.8705C16.5187 15.584 14.5038 13.949 12.775 12.9666C11.0167 11.9675 8.72372 10.9529 5.8996 9.927L6.47874 8.29407C9.38615 9.35022 11.7635 10.4021 13.6143 11.4538C15.4947 12.5224 17.623 14.2494 20.0117 16.6359Z" fill="#FFE017"/>
<path d="M6.45833 17.3353L6.00247 16.7174C6.06613 16.6693 6.17972 16.5891 6.33622 16.4874C6.59462 16.3195 6.88156 16.1519 7.19028 15.9953C8.04058 15.564 8.89352 15.2947 9.70704 15.2699C9.74682 15.2687 9.78644 15.2681 9.82589 15.2681V16.0392C9.79411 16.0392 9.76212 16.0397 9.72992 16.0407C9.04435 16.0615 8.29149 16.2992 7.53169 16.6847C7.24849 16.8283 6.98462 16.9825 6.7478 17.1363C6.66537 17.1899 6.59244 17.2394 6.52994 17.2835C6.49351 17.3093 6.46933 17.327 6.45833 17.3353Z" fill="#FFE017"/>
<path d="M6.81216 17.6025L7.00403 16.8563C9.54415 17.5253 11.5024 17.8586 12.8691 17.8586C14.2307 17.8586 16.2573 17.4654 18.9357 16.6763L19.1487 17.4166C16.4069 18.2244 14.3181 18.6297 12.8691 18.6297C11.4252 18.6297 9.40951 18.2866 6.81216 17.6025Z" fill="#FFE017"/>
<path d="M5.82245 10.6944L7.02953 9.46246L8.79685 11.2361L7.58977 12.468L5.82245 10.6944Z" fill="#FFE017"/>
<path d="M15.8359 16.8477L16.7338 15.3698L19.5374 17.1142L18.6396 18.5922L15.8359 16.8477Z" fill="#FFE017"/>
</g>
<path d="M12.9044 5.19275C17.1648 5.19275 20.6192 8.68855 20.6192 13.0004C20.619 17.312 17.1647 20.807 12.9044 20.807C8.6442 20.8068 5.1907 17.3119 5.19049 13.0004C5.19049 8.68869 8.64407 5.19298 12.9044 5.19275ZM13.0001 6.349C9.31826 6.349 6.33323 9.36995 6.33307 13.0961C6.33307 16.8223 9.31816 19.8431 13.0001 19.8431C16.6819 19.8431 19.6671 16.8223 19.6671 13.0961C19.6669 9.36996 16.6818 6.34902 13.0001 6.349Z" fill="#F9E813"/>
<path d="M8.65671 8.18524V14.446C9.06884 16.924 10.4573 18.1631 12.8221 18.1631C15.1869 18.1631 16.5753 16.924 16.9875 14.446V8.18524H8.65671Z" fill="white"/>
<path d="M8.08527 7.60693H17.5589V14.4943L17.551 14.5419C17.0933 17.2936 15.471 18.7414 12.8221 18.7414C10.1732 18.7414 8.55083 17.2936 8.09319 14.5419L8.08527 14.4943V7.60693Z" fill="#C51918"/>
<path d="M10.2522 9.71069H15.392V14.1516C15.392 14.1516 15.0105 16.4449 12.8221 16.4449C10.6336 16.4449 10.2522 14.1516 10.2522 14.1516V9.71069Z" fill="#F7FCFF"/>
<path fill-rule="evenodd" clip-rule="evenodd" d="M9 8.08435H9.72289V8.56628H9V8.08435Z" fill="#F9E813"/>
<path fill-rule="evenodd" clip-rule="evenodd" d="M8.61905 8.2771H9.95238V8.51806H8.61905V8.2771Z" fill="#060101"/>
<path fill-rule="evenodd" clip-rule="evenodd" d="M8.61905 8.46991H9.34194V8.71087H8.61905V8.46991Z" fill="#F9E813"/>
<path fill-rule="evenodd" clip-rule="evenodd" d="M9.38095 8.46991H10.1038V8.71087H9.38095V8.46991Z" fill="#F9E813"/>
<path fill-rule="evenodd" clip-rule="evenodd" d="M8.61905 9.04822H9.10098V9.77111H8.61905V9.04822Z" fill="#F9E813"/>
<path fill-rule="evenodd" clip-rule="evenodd" d="M9.57144 9.04822H10.0534V9.77111H9.57144V9.04822Z" fill="#F9E813"/>
<path fill-rule="evenodd" clip-rule="evenodd" d="M9.19049 9.04822H9.43145V9.77111H9.19049V9.04822Z" fill="#F9E813"/>
<path fill-rule="evenodd" clip-rule="evenodd" d="M8.61905 8.85541H9.95238V9.09637H8.61905V8.85541Z" fill="#060101"/>
<path fill-rule="evenodd" clip-rule="evenodd" d="M8.61905 9.43378H9.95238V9.67474H8.61905V9.43378Z" fill="#060101"/>
<path fill-rule="evenodd" clip-rule="evenodd" d="M8.80954 8.66266H9.0505V8.90362H8.80954V8.66266Z" fill="#F9E813"/>
<path fill-rule="evenodd" clip-rule="evenodd" d="M9.57144 8.66266H9.81241V8.90362H9.57144V8.66266Z" fill="#F9E813"/>
<path fill-rule="evenodd" clip-rule="evenodd" d="M9.19049 8.46991H9.43145V8.95184H9.19049V8.46991Z" fill="#F9E813"/>
<path fill-rule="evenodd" clip-rule="evenodd" d="M12.619 8.08435H13.3419V8.56628H12.619V8.08435Z" fill="#F9E813"/>
<path fill-rule="evenodd" clip-rule="evenodd" d="M12.2381 8.2771H13.5714V8.51806H12.2381V8.2771Z" fill="#060101"/>
<path fill-rule="evenodd" clip-rule="evenodd" d="M12.2381 8.46991H12.961V8.71087H12.2381V8.46991Z" fill="#F9E813"/>
<path fill-rule="evenodd" clip-rule="evenodd" d="M13 8.46991H13.7229V8.71087H13V8.46991Z" fill="#F9E813"/>
<path fill-rule="evenodd" clip-rule="evenodd" d="M12.2381 9.04822H12.72V9.77111H12.2381V9.04822Z" fill="#F9E813"/>
<path fill-rule="evenodd" clip-rule="evenodd" d="M13.1905 9.04822H13.6724V9.77111H13.1905V9.04822Z" fill="#F9E813"/>
<path fill-rule="evenodd" clip-rule="evenodd" d="M12.8095 9.04822H13.0505V9.77111H12.8095V9.04822Z" fill="#F9E813"/>
<path fill-rule="evenodd" clip-rule="evenodd" d="M12.2381 8.85541H13.5714V9.09637H12.2381V8.85541Z" fill="#060101"/>
<path fill-rule="evenodd" clip-rule="evenodd" d="M12.2381 9.43378H13.5714V9.67474H12.2381V9.43378Z" fill="#060101"/>
<path fill-rule="evenodd" clip-rule="evenodd" d="M12.4286 8.66266H12.6696V8.90362H12.4286V8.66266Z" fill="#F9E813"/>
<path fill-rule="evenodd" clip-rule="evenodd" d="M13.1905 8.66266H13.4315V8.90362H13.1905V8.66266Z" fill="#F9E813"/>
<path fill-rule="evenodd" clip-rule="evenodd" d="M12.8095 8.46991H13.0505V8.95184H12.8095V8.46991Z" fill="#F9E813"/>
<path fill-rule="evenodd" clip-rule="evenodd" d="M16.0476 8.08435H16.7705V8.56628H16.0476V8.08435Z" fill="#F9E813"/>
<path fill-rule="evenodd" clip-rule="evenodd" d="M15.6667 8.2771H17V8.51806H15.6667V8.2771Z" fill="#060101"/>
<path fill-rule="evenodd" clip-rule="evenodd" d="M15.6667 8.46991H16.3895V8.71087H15.6667V8.46991Z" fill="#F9E813"/>
<path fill-rule="evenodd" clip-rule="evenodd" d="M16.4286 8.46991H17.1514V8.71087H16.4286V8.46991Z" fill="#F9E813"/>
<path fill-rule="evenodd" clip-rule="evenodd" d="M15.6667 9.04822H16.1486V9.77111H15.6667V9.04822Z" fill="#F9E813"/>
<path fill-rule="evenodd" clip-rule="evenodd" d="M16.619 9.04822H17.101V9.77111H16.619V9.04822Z" fill="#F9E813"/>
<path fill-rule="evenodd" clip-rule="evenodd" d="M16.2381 9.04822H16.4791V9.77111H16.2381V9.04822Z" fill="#F9E813"/>
<path fill-rule="evenodd" clip-rule="evenodd" d="M15.6667 8.85541H17V9.09637H15.6667V8.85541Z" fill="#060101"/>
<path fill-rule="evenodd" clip-rule="evenodd" d="M15.6667 9.43378H17V9.67474H15.6667V9.43378Z" fill="#060101"/>
<path fill-rule="evenodd" clip-rule="evenodd" d="M15.8571 8.66266H16.0981V8.90362H15.8571V8.66266Z" fill="#F9E813"/>
<path fill-rule="evenodd" clip-rule="evenodd" d="M16.619 8.66266H16.86V8.90362H16.619V8.66266Z" fill="#F9E813"/>
<path fill-rule="evenodd" clip-rule="evenodd" d="M16.2381 8.46991H16.4791V8.95184H16.2381V8.46991Z" fill="#F9E813"/>
<path fill-rule="evenodd" clip-rule="evenodd" d="M16.0476 11.5543H16.7705V12.0362H16.0476V11.5543Z" fill="#F9E813"/>
<path fill-rule="evenodd" clip-rule="evenodd" d="M15.6667 11.747H17V11.988H15.6667V11.747Z" fill="#060101"/>
<path fill-rule="evenodd" clip-rule="evenodd" d="M15.6667 11.9398H16.3895V12.1808H15.6667V11.9398Z" fill="#F9E813"/>
<path fill-rule="evenodd" clip-rule="evenodd" d="M16.4286 11.9398H17.1514V12.1808H16.4286V11.9398Z" fill="#F9E813"/>
<path fill-rule="evenodd" clip-rule="evenodd" d="M15.6667 12.5181H16.1486V13.241H15.6667V12.5181Z" fill="#F9E813"/>
<path fill-rule="evenodd" clip-rule="evenodd" d="M16.619 12.5181H17.101V13.241H16.619V12.5181Z" fill="#F9E813"/>
<path fill-rule="evenodd" clip-rule="evenodd" d="M16.2381 12.5181H16.4791V13.241H16.2381V12.5181Z" fill="#F9E813"/>
<path fill-rule="evenodd" clip-rule="evenodd" d="M15.6667 12.3253H17V12.5663H15.6667V12.3253Z" fill="#060101"/>
<path fill-rule="evenodd" clip-rule="evenodd" d="M15.6667 12.9037H17V13.1447H15.6667V12.9037Z" fill="#060101"/>
<path fill-rule="evenodd" clip-rule="evenodd" d="M15.8571 12.1326H16.0981V12.3735H15.8571V12.1326Z" fill="#F9E813"/>
<path fill-rule="evenodd" clip-rule="evenodd" d="M16.619 12.1326H16.86V12.3735H16.619V12.1326Z" fill="#F9E813"/>
<path fill-rule="evenodd" clip-rule="evenodd" d="M16.2381 11.9398H16.4791V12.4217H16.2381V11.9398Z" fill="#F9E813"/>
<path fill-rule="evenodd" clip-rule="evenodd" d="M9 11.5543H9.72289V12.0362H9V11.5543Z" fill="#F9E813"/>
<path fill-rule="evenodd" clip-rule="evenodd" d="M8.61905 11.747H9.95238V11.988H8.61905V11.747Z" fill="#060101"/>
<path fill-rule="evenodd" clip-rule="evenodd" d="M8.61905 11.9398H9.34194V12.1808H8.61905V11.9398Z" fill="#F9E813"/>
<path fill-rule="evenodd" clip-rule="evenodd" d="M9.38095 11.9398H10.1038V12.1808H9.38095V11.9398Z" fill="#F9E813"/>
<path fill-rule="evenodd" clip-rule="evenodd" d="M8.61905 12.5181H9.10098V13.241H8.61905V12.5181Z" fill="#F9E813"/>
<path fill-rule="evenodd" clip-rule="evenodd" d="M9.57144 12.5181H10.0534V13.241H9.57144V12.5181Z" fill="#F9E813"/>
<path fill-rule="evenodd" clip-rule="evenodd" d="M9.19049 12.5181H9.43145V13.241H9.19049V12.5181Z" fill="#F9E813"/>
<path fill-rule="evenodd" clip-rule="evenodd" d="M8.61905 12.3253H9.95238V12.5663H8.61905V12.3253Z" fill="#060101"/>
<path fill-rule="evenodd" clip-rule="evenodd" d="M8.61905 12.9037H9.95238V13.1447H8.61905V12.9037Z" fill="#060101"/>
<path fill-rule="evenodd" clip-rule="evenodd" d="M8.80954 12.1326H9.0505V12.3735H8.80954V12.1326Z" fill="#F9E813"/>
<path fill-rule="evenodd" clip-rule="evenodd" d="M9.57144 12.1326H9.81241V12.3735H9.57144V12.1326Z" fill="#F9E813"/>
<path fill-rule="evenodd" clip-rule="evenodd" d="M9.19049 11.9398H9.43145V12.4217H9.19049V11.9398Z" fill="#F9E813"/>
<path fill-rule="evenodd" clip-rule="evenodd" d="M9.46375 15.904L9.92841 15.3502L10.2976 15.66L9.83292 16.2138L9.46375 15.904Z" fill="#F9E813"/>
<path fill-rule="evenodd" clip-rule="evenodd" d="M9.36655 16.3197L10.2236 15.2983L10.4082 15.4532L9.55114 16.4746L9.36655 16.3197Z" fill="#060101"/>
<path fill-rule="evenodd" clip-rule="evenodd" d="M9.51422 16.4436L9.97889 15.8898L10.1635 16.0447L9.69881 16.5985L9.51422 16.4436Z" fill="#F9E813"/>
<path fill-rule="evenodd" clip-rule="evenodd" d="M10.004 15.86L10.4686 15.3062L10.6532 15.4611L10.1886 16.0149L10.004 15.86Z" fill="#F9E813"/>
<path fill-rule="evenodd" clip-rule="evenodd" d="M9.95721 16.8154L10.267 16.4462L10.8208 16.9109L10.511 17.28L9.95721 16.8154Z" fill="#F9E813"/>
<path fill-rule="evenodd" clip-rule="evenodd" d="M10.5694 16.0858L10.8792 15.7166L11.4329 16.1813L11.1232 16.5505L10.5694 16.0858Z" fill="#F9E813"/>
<path fill-rule="evenodd" clip-rule="evenodd" d="M10.3245 16.3776L10.4794 16.193L11.0332 16.6577L10.8783 16.8423L10.3245 16.3776Z" fill="#F9E813"/>
<path fill-rule="evenodd" clip-rule="evenodd" d="M9.80957 16.6915L10.6666 15.6701L10.8512 15.825L9.99416 16.8464L9.80957 16.6915Z" fill="#060101"/>
<path fill-rule="evenodd" clip-rule="evenodd" d="M10.2526 17.0632L11.1096 16.0418L11.2942 16.1967L10.4372 17.2181L10.2526 17.0632Z" fill="#060101"/>
<path fill-rule="evenodd" clip-rule="evenodd" d="M9.78433 16.4216L9.93922 16.237L10.1238 16.3919L9.96892 16.5765L9.78433 16.4216Z" fill="#F9E813"/>
<path fill-rule="evenodd" clip-rule="evenodd" d="M10.2741 15.838L10.429 15.6534L10.6136 15.8083L10.4587 15.9928L10.2741 15.838Z" fill="#F9E813"/>
<path fill-rule="evenodd" clip-rule="evenodd" d="M9.88153 16.0059L10.0364 15.8213L10.4056 16.131L10.2507 16.3156L9.88153 16.0059Z" fill="#F9E813"/>
<path fill-rule="evenodd" clip-rule="evenodd" d="M15.9785 15.4662L16.4431 16.02L16.0739 16.3297L15.6093 15.776L15.9785 15.4662Z" fill="#F9E813"/>
<path fill-rule="evenodd" clip-rule="evenodd" d="M15.5859 15.2983L16.443 16.3197L16.2584 16.4746L15.4013 15.4532L15.5859 15.2983Z" fill="#060101"/>
<path fill-rule="evenodd" clip-rule="evenodd" d="M15.4382 15.4222L15.9029 15.9759L15.7183 16.1308L15.2536 15.5771L15.4382 15.4222Z" fill="#F9E813"/>
<path fill-rule="evenodd" clip-rule="evenodd" d="M15.928 16.0059L16.3926 16.5596L16.2081 16.7145L15.7434 16.1607L15.928 16.0059Z" fill="#F9E813"/>
<path fill-rule="evenodd" clip-rule="evenodd" d="M14.9952 15.7939L15.305 16.1631L14.7512 16.6278L14.4415 16.2586L14.9952 15.7939Z" fill="#F9E813"/>
<path fill-rule="evenodd" clip-rule="evenodd" d="M15.6074 16.5235L15.9172 16.8927L15.3634 17.3573L15.0536 16.9882L15.6074 16.5235Z" fill="#F9E813"/>
<path fill-rule="evenodd" clip-rule="evenodd" d="M15.3625 16.2317L15.5174 16.4163L14.9636 16.8809L14.8088 16.6964L15.3625 16.2317Z" fill="#F9E813"/>
<path fill-rule="evenodd" clip-rule="evenodd" d="M15.1429 15.67L15.9999 16.6914L15.8153 16.8463L14.9583 15.8249L15.1429 15.67Z" fill="#060101"/>
<path fill-rule="evenodd" clip-rule="evenodd" d="M14.6999 16.0417L15.5569 17.0631L15.3724 17.218L14.5153 16.1966L14.6999 16.0417Z" fill="#060101"/>
<path fill-rule="evenodd" clip-rule="evenodd" d="M15.413 15.692L15.5679 15.8766L15.3833 16.0315L15.2284 15.8469L15.413 15.692Z" fill="#F9E813"/>
<path fill-rule="evenodd" clip-rule="evenodd" d="M15.9027 16.2757L16.0576 16.4603L15.873 16.6152L15.7182 16.4306L15.9027 16.2757Z" fill="#F9E813"/>
<path fill-rule="evenodd" clip-rule="evenodd" d="M15.8055 15.8599L15.9604 16.0445L15.5913 16.3543L15.4364 16.1697L15.8055 15.8599Z" fill="#F9E813"/>
<path d="M13.5584 11.1667C13.555 11.183 13.4509 11.6628 12.8983 11.6628C12.3456 11.6628 12.2415 11.183 12.2381 11.1667V10.2048H13.5584V11.1667ZM12.619 11.1686C12.5139 11.1687 12.4287 11.2548 12.4285 11.361C12.4285 11.4675 12.5138 11.5543 12.619 11.5544C12.7242 11.5544 12.8094 11.4675 12.8094 11.361C12.8092 11.2547 12.724 11.1686 12.619 11.1686ZM13.1902 11.1686C13.0853 11.1688 13 11.2548 12.9998 11.361C12.9998 11.4674 13.0852 11.5543 13.1902 11.5544C13.2954 11.5544 13.3807 11.4675 13.3807 11.361C13.3805 11.2547 13.2953 11.1686 13.1902 11.1686ZM12.9051 10.7829C12.7999 10.7829 12.7147 10.8698 12.7147 10.9763C12.7149 11.0825 12.8 11.1686 12.9051 11.1686C13.01 11.1685 13.0953 11.0824 13.0955 10.9763C13.0955 10.8699 13.0101 10.7831 12.9051 10.7829ZM12.619 10.3972C12.5138 10.3972 12.4285 10.4841 12.4285 10.5905C12.4286 10.6969 12.5139 10.7828 12.619 10.7829C12.7241 10.7829 12.8093 10.6969 12.8094 10.5905C12.8094 10.4841 12.7242 10.3972 12.619 10.3972ZM13.1902 10.3972C13.0852 10.3973 12.9998 10.4841 12.9998 10.5905C12.9999 10.6968 13.0852 10.7828 13.1902 10.7829C13.2954 10.7829 13.3806 10.6969 13.3807 10.5905C13.3807 10.4841 13.2954 10.3972 13.1902 10.3972Z" fill="#013399"/>
<path d="M13.5584 13.2872C13.555 13.3035 13.4509 13.7833 12.8983 13.7833C12.3456 13.7833 12.2415 13.3034 12.2381 13.2872V12.3253H13.5584V13.2872ZM12.619 13.2891C12.5139 13.2892 12.4287 13.3752 12.4285 13.4815C12.4285 13.5879 12.5138 13.6748 12.619 13.6749C12.7242 13.6749 12.8094 13.588 12.8094 13.4815C12.8092 13.3752 12.724 13.2891 12.619 13.2891ZM13.1902 13.2891C13.0853 13.2893 13 13.3753 12.9998 13.4815C12.9998 13.5879 13.0852 13.6747 13.1902 13.6749C13.2954 13.6749 13.3807 13.588 13.3807 13.4815C13.3805 13.3752 13.2953 13.2891 13.1902 13.2891ZM12.9051 12.9034C12.7999 12.9034 12.7147 12.9903 12.7147 13.0967C12.7149 13.203 12.8 13.2891 12.9051 13.2891C13.01 13.2889 13.0953 13.2029 13.0955 13.0967C13.0955 12.9904 13.0101 12.9036 12.9051 12.9034ZM12.619 12.5176C12.5138 12.5177 12.4285 12.6046 12.4285 12.711C12.4286 12.8173 12.5139 12.9033 12.619 12.9034C12.7241 12.9034 12.8093 12.8174 12.8094 12.711C12.8094 12.6045 12.7242 12.5176 12.619 12.5176ZM13.1902 12.5176C13.0852 12.5178 12.9998 12.6046 12.9998 12.711C12.9999 12.8173 13.0852 12.9033 13.1902 12.9034C13.2954 12.9034 13.3806 12.8174 13.3807 12.711C13.3807 12.6045 13.2954 12.5176 13.1902 12.5176Z" fill="#013399"/>
<path d="M15.2727 13.2872C15.2693 13.3035 15.1652 13.7833 14.6125 13.7833C14.0599 13.7833 13.9558 13.3034 13.9524 13.2872V12.3253H15.2727V13.2872ZM14.3333 13.2891C14.2282 13.2892 14.143 13.3752 14.1428 13.4815C14.1428 13.5879 14.2281 13.6748 14.3333 13.6749C14.4384 13.6749 14.5237 13.588 14.5237 13.4815C14.5235 13.3752 14.4383 13.2891 14.3333 13.2891ZM14.9045 13.2891C14.7996 13.2893 14.7143 13.3753 14.7141 13.4815C14.7141 13.5879 14.7995 13.6747 14.9045 13.6749C15.0097 13.6749 15.095 13.588 15.095 13.4815C15.0948 13.3752 15.0096 13.2891 14.9045 13.2891ZM14.6194 12.9034C14.5142 12.9034 14.429 12.9903 14.429 13.0967C14.4292 13.203 14.5143 13.2891 14.6194 13.2891C14.7243 13.2889 14.8096 13.2029 14.8098 13.0967C14.8098 12.9904 14.7244 12.9036 14.6194 12.9034ZM14.3333 12.5176C14.2281 12.5177 14.1428 12.6046 14.1428 12.711C14.1429 12.8173 14.2282 12.9033 14.3333 12.9034C14.4384 12.9034 14.5236 12.8174 14.5237 12.711C14.5237 12.6045 14.4384 12.5176 14.3333 12.5176ZM14.9045 12.5176C14.7995 12.5178 14.7141 12.6046 14.7141 12.711C14.7142 12.8173 14.7995 12.9033 14.9045 12.9034C15.0097 12.9034 15.0949 12.8174 15.095 12.711C15.095 12.6045 15.0097 12.5176 14.9045 12.5176Z" fill="#013399"/>
<path d="M11.8441 13.2872C11.8407 13.3035 11.7366 13.7833 11.184 13.7833C10.6313 13.7833 10.5272 13.3034 10.5238 13.2872V12.3253H11.8441V13.2872ZM10.9047 13.2891C10.7996 13.2892 10.7144 13.3752 10.7142 13.4815C10.7142 13.5879 10.7995 13.6748 10.9047 13.6749C11.0099 13.6749 11.0951 13.588 11.0951 13.4815C11.0949 13.3752 11.0097 13.2891 10.9047 13.2891ZM11.476 13.2891C11.371 13.2893 11.2857 13.3753 11.2855 13.4815C11.2855 13.5879 11.3709 13.6747 11.476 13.6749C11.5811 13.6749 11.6664 13.588 11.6664 13.4815C11.6662 13.3752 11.581 13.2891 11.476 13.2891ZM11.1908 12.9034C11.0856 12.9034 11.0004 12.9903 11.0004 13.0967C11.0006 13.203 11.0857 13.2891 11.1908 13.2891C11.2957 13.2889 11.381 13.2029 11.3812 13.0967C11.3812 12.9904 11.2958 12.9036 11.1908 12.9034ZM10.9047 12.5176C10.7995 12.5177 10.7142 12.6046 10.7142 12.711C10.7143 12.8173 10.7996 12.9033 10.9047 12.9034C11.0098 12.9034 11.095 12.8174 11.0951 12.711C11.0951 12.6045 11.0099 12.5176 10.9047 12.5176ZM11.476 12.5176C11.3709 12.5178 11.2855 12.6046 11.2855 12.711C11.2856 12.8173 11.3709 12.9033 11.476 12.9034C11.5811 12.9034 11.6663 12.8174 11.6664 12.711C11.6664 12.6045 11.5811 12.5176 11.476 12.5176Z" fill="#013399"/>
<path d="M13.5584 15.4077C13.555 15.424 13.4509 15.9037 12.8983 15.9037C12.3456 15.9037 12.2415 15.4239 12.2381 15.4077V14.4457H13.5584V15.4077ZM12.619 15.4096C12.5139 15.4097 12.4287 15.4957 12.4285 15.602C12.4285 15.7084 12.5138 15.7953 12.619 15.7953C12.7242 15.7953 12.8094 15.7085 12.8094 15.602C12.8092 15.4957 12.724 15.4096 12.619 15.4096ZM13.1902 15.4096C13.0853 15.4097 13 15.4958 12.9998 15.602C12.9998 15.7084 13.0852 15.7952 13.1902 15.7953C13.2954 15.7953 13.3807 15.7085 13.3807 15.602C13.3805 15.4957 13.2953 15.4096 13.1902 15.4096ZM12.9051 15.0239C12.7999 15.0239 12.7147 15.1108 12.7147 15.2172C12.7149 15.3235 12.8 15.4096 12.9051 15.4096C13.01 15.4094 13.0953 15.3234 13.0955 15.2172C13.0955 15.1109 13.0101 15.024 12.9051 15.0239ZM12.619 14.6381C12.5138 14.6382 12.4285 14.725 12.4285 14.8315C12.4286 14.9378 12.5139 15.0238 12.619 15.0239C12.7241 15.0239 12.8093 14.9379 12.8094 14.8315C12.8094 14.725 12.7242 14.6381 12.619 14.6381ZM13.1902 14.6381C13.0852 14.6382 12.9998 14.7251 12.9998 14.8315C12.9999 14.9378 13.0852 15.0237 13.1902 15.0239C13.2954 15.0239 13.3806 14.9379 13.3807 14.8315C13.3807 14.725 13.2954 14.6381 13.1902 14.6381Z" fill="#013399"/>
</g>
<rect x="0.5" y="0.5" width="33" height="25" stroke="#DDE4F9"/>
<defs>
<clipPath id="clip0_6021_64254">
<rect x="1" y="1" width="32" height="24" fill="white"/>
</clipPath>
</defs>
</svg>
