<svg width="32" height="24" viewBox="0 0 32 24" fill="none" xmlns="http://www.w3.org/2000/svg">
<g clip-path="url(#clip0_6021_67075)">
<rect width="32" height="24" fill="white"/>
<path fill-rule="evenodd" clip-rule="evenodd" d="M0 0V24H32V0H0Z" fill="#FFB400"/>
<mask id="mask0_6021_67075" style="mask-type:luminance" maskUnits="userSpaceOnUse" x="0" y="0" width="32" height="24">
<path fill-rule="evenodd" clip-rule="evenodd" d="M0 0V24H32V0H0Z" fill="white"/>
</mask>
<g mask="url(#mask0_6021_67075)">
<path fill-rule="evenodd" clip-rule="evenodd" d="M0 0V6H32V0H0Z" fill="#C51918"/>
<path fill-rule="evenodd" clip-rule="evenodd" d="M0 18V24H32V18H0Z" fill="#C51918"/>
<rect x="5.00781" y="10.272" width="1.12" height="5.824" fill="#F1F9FF"/>
<path d="M6.5752 9.82373H6.23926V10.272H4.89551V9.82373H4.55957V9.26416H6.5752V9.82373Z" fill="#C88A02"/>
<path fill-rule="evenodd" clip-rule="evenodd" d="M6.23957 16.4321H6.57557V16.9921H4.55957V16.4321H4.89557V15.9841H6.23957V16.4321Z" fill="#C88A02"/>
<path fill-rule="evenodd" clip-rule="evenodd" d="M5.56769 9.37604C5.81142 9.37604 5.8362 9.28427 5.97999 9.14719C6.09165 9.04075 6.35169 8.90875 6.35169 8.76004C6.35169 8.41984 6.00068 8.14404 5.56769 8.14404C5.1347 8.14404 4.78369 8.41984 4.78369 8.76004C4.78369 8.92571 4.96277 9.03648 5.09817 9.14719C5.24083 9.26383 5.34555 9.37604 5.56769 9.37604Z" fill="#AD1619"/>
<path fill-rule="evenodd" clip-rule="evenodd" d="M4.55957 16.9919H6.57557V17.8879C6.57557 17.8879 6.32357 17.7759 6.07157 17.7759C5.81957 17.7759 5.56757 17.8879 5.56757 17.8879C5.56757 17.8879 5.31557 17.7759 5.06357 17.7759C4.81157 17.7759 4.55957 17.8879 4.55957 17.8879V16.9919Z" fill="#005BBF"/>
<mask id="mask1_6021_67075" style="mask-type:luminance" maskUnits="userSpaceOnUse" x="4" y="16" width="3" height="2">
<path fill-rule="evenodd" clip-rule="evenodd" d="M4.55957 16.9919H6.57557V17.8879C6.57557 17.8879 6.32357 17.7759 6.07157 17.7759C5.81957 17.7759 5.56757 17.8879 5.56757 17.8879C5.56757 17.8879 5.31557 17.7759 5.06357 17.7759C4.81157 17.7759 4.55957 17.8879 4.55957 17.8879V16.9919Z" fill="white"/>
</mask>
<g mask="url(#mask1_6021_67075)">
<path d="M4.54156 17.7118L4.49756 17.6045C4.67914 17.5237 4.86136 17.4832 5.04386 17.4832C5.16177 17.4832 5.22334 17.4996 5.32802 17.5462C5.41996 17.5871 5.46761 17.5998 5.56817 17.5998C5.66872 17.5998 5.71637 17.5871 5.80832 17.5462C5.91299 17.4996 5.97456 17.4832 6.09247 17.4832C6.27497 17.4832 6.45719 17.5237 6.63877 17.6045L6.59477 17.7118C6.42681 17.6371 6.2595 17.5998 6.09247 17.5998C5.99192 17.5998 5.94426 17.6125 5.85232 17.6535C5.74765 17.7 5.68607 17.7165 5.56817 17.7165C5.45026 17.7165 5.38869 17.7 5.28401 17.6535C5.19207 17.6125 5.14441 17.5998 5.04386 17.5998C4.87683 17.5998 4.70952 17.6371 4.54156 17.7118Z" fill="white"/>
<path d="M4.54156 17.3759L4.49756 17.2686C4.67914 17.1878 4.86136 17.1472 5.04386 17.1472C5.16177 17.1472 5.22334 17.1637 5.32802 17.2102C5.41996 17.2512 5.46761 17.2639 5.56817 17.2639C5.66872 17.2639 5.71637 17.2512 5.80832 17.2102C5.91299 17.1637 5.97456 17.1472 6.09247 17.1472C6.27497 17.1472 6.45719 17.1878 6.63877 17.2686L6.59477 17.3759C6.42681 17.3011 6.2595 17.2639 6.09247 17.2639C5.99192 17.2639 5.94426 17.2766 5.85232 17.3175C5.74765 17.3641 5.68607 17.3806 5.56817 17.3806C5.45026 17.3806 5.38869 17.3641 5.28401 17.3175C5.19207 17.2766 5.14441 17.2639 5.04386 17.2639C4.87683 17.2639 4.70952 17.3011 4.54156 17.3759Z" fill="white"/>
</g>
<rect x="15.9839" y="10.272" width="1.12" height="5.824" fill="#F1F9FF"/>
<path d="M17.5513 9.82373H17.2153V10.272H15.8716V9.82373H15.5356V9.26416H17.5513V9.82373Z" fill="#C88A02"/>
<path fill-rule="evenodd" clip-rule="evenodd" d="M17.2156 16.4321H17.5516V16.9921H15.5356V16.4321H15.8716V15.9841H17.2156V16.4321Z" fill="#C88A02"/>
<path fill-rule="evenodd" clip-rule="evenodd" d="M16.5438 9.37604C16.7875 9.37604 16.8123 9.28427 16.9561 9.14719C17.0677 9.04075 17.3278 8.90875 17.3278 8.76004C17.3278 8.41984 16.9768 8.14404 16.5438 8.14404C16.1108 8.14404 15.7598 8.41984 15.7598 8.76004C15.7598 8.92571 15.9388 9.03648 16.0742 9.14719C16.2169 9.26383 16.3216 9.37604 16.5438 9.37604Z" fill="#AD1619"/>
<path fill-rule="evenodd" clip-rule="evenodd" d="M15.5356 16.9919H17.5516V17.8879C17.5516 17.8879 17.2996 17.7759 17.0476 17.7759C16.7956 17.7759 16.5436 17.8879 16.5436 17.8879C16.5436 17.8879 16.2916 17.7759 16.0396 17.7759C15.7876 17.7759 15.5356 17.8879 15.5356 17.8879V16.9919Z" fill="#005BBF"/>
<mask id="mask2_6021_67075" style="mask-type:luminance" maskUnits="userSpaceOnUse" x="15" y="16" width="3" height="2">
<path fill-rule="evenodd" clip-rule="evenodd" d="M15.5356 16.9919H17.5516V17.8879C17.5516 17.8879 17.2996 17.7759 17.0476 17.7759C16.7956 17.7759 16.5436 17.8879 16.5436 17.8879C16.5436 17.8879 16.2916 17.7759 16.0396 17.7759C15.7876 17.7759 15.5356 17.8879 15.5356 17.8879V16.9919Z" fill="white"/>
</mask>
<g mask="url(#mask2_6021_67075)">
<path d="M15.5176 17.7118L15.4736 17.6045C15.6552 17.5237 15.8374 17.4832 16.0199 17.4832C16.1378 17.4832 16.1994 17.4996 16.3041 17.5462C16.396 17.5871 16.4437 17.5998 16.5442 17.5998C16.6448 17.5998 16.6924 17.5871 16.7844 17.5462C16.8891 17.4996 16.9506 17.4832 17.0685 17.4832C17.251 17.4832 17.4333 17.5237 17.6148 17.6045L17.5708 17.7118C17.4029 17.6371 17.2356 17.5998 17.0685 17.5998C16.968 17.5998 16.9203 17.6125 16.8284 17.6535C16.7237 17.7 16.6621 17.7165 16.5442 17.7165C16.4263 17.7165 16.3648 17.7 16.2601 17.6535C16.1681 17.6125 16.1205 17.5998 16.0199 17.5998C15.8529 17.5998 15.6856 17.6371 15.5176 17.7118Z" fill="white"/>
<path d="M15.5176 17.3759L15.4736 17.2686C15.6552 17.1878 15.8374 17.1472 16.0199 17.1472C16.1378 17.1472 16.1994 17.1637 16.3041 17.2102C16.396 17.2512 16.4437 17.2639 16.5442 17.2639C16.6448 17.2639 16.6924 17.2512 16.7844 17.2102C16.8891 17.1637 16.9506 17.1472 17.0685 17.1472C17.251 17.1472 17.4333 17.1878 17.6148 17.2686L17.5708 17.3759C17.4029 17.3011 17.2356 17.2639 17.0685 17.2639C16.968 17.2639 16.9203 17.2766 16.8284 17.3175C16.7237 17.3641 16.6621 17.3806 16.5442 17.3806C16.4263 17.3806 16.3648 17.3641 16.2601 17.3175C16.1681 17.2766 16.1205 17.2639 16.0199 17.2639C15.8529 17.2639 15.6856 17.3011 15.5176 17.3759Z" fill="white"/>
</g>
<path d="M4.38759 11.8721C5.13765 11.3555 7.14574 11.3088 8.02724 11.7637L7.61611 12.5596C7.18347 12.3365 6.20089 12.2947 5.51259 12.4092C5.61718 12.4274 5.73471 12.4471 5.86611 12.4678C5.94839 12.4807 6.23652 12.5247 6.25967 12.5283C6.53443 12.5711 6.72227 12.6251 6.86123 12.7197C7.14492 12.9129 7.18677 13.2618 6.98427 13.5185C6.89884 13.6268 6.78695 13.7077 6.61806 13.8056C6.5638 13.8371 6.50507 13.8693 6.42666 13.9111C6.41066 13.9197 6.27449 13.9921 6.23427 14.0137C6.07282 14.1004 5.96664 14.1632 5.88759 14.2207C5.76378 14.3107 5.63622 14.384 5.49209 14.4531C5.41502 14.49 5.19698 14.5853 5.19326 14.5869C5.18887 14.5889 5.18464 14.5909 5.18056 14.5928C5.25814 14.6979 5.30259 14.8267 5.30263 14.9756C5.3026 15.2121 5.1891 15.4349 4.9872 15.6797L4.2997 15.1123L4.23427 15.0928L4.19814 14.8056C4.1306 14.2765 4.35628 13.9835 4.82217 13.7715C4.83453 13.7659 5.04532 13.6743 5.10537 13.6455C5.20369 13.5983 5.28457 13.5511 5.36025 13.4961C5.43494 13.4418 5.51551 13.3901 5.6122 13.334C5.03546 13.2413 4.72343 13.1733 4.48427 13.0703C3.91194 12.8237 3.83777 12.251 4.38759 11.8721ZM13.9804 11.7637C14.8617 11.3086 16.8699 11.3555 17.62 11.8721C18.1702 12.2509 18.0967 12.8236 17.5243 13.0703C17.2852 13.1733 16.9732 13.2413 16.3964 13.334C16.493 13.39 16.5727 13.4418 16.6474 13.4961C16.7231 13.5512 16.8048 13.5983 16.9032 13.6455C16.9638 13.6745 17.1736 13.7661 17.1854 13.7715C17.6516 13.9835 17.878 14.2763 17.8104 14.8056L17.7743 15.0928L17.7079 15.1123L17.0204 15.6797C16.8186 15.4349 16.706 15.2121 16.706 14.9756C16.706 14.8265 16.7503 14.6979 16.828 14.5928C16.8238 14.5909 16.8189 14.589 16.8144 14.5869C16.8071 14.5838 16.5916 14.4896 16.5155 14.4531C16.3715 14.384 16.2447 14.3106 16.121 14.2207C16.0419 14.1632 15.9358 14.1003 15.7743 14.0137C15.7347 13.9924 15.5991 13.9203 15.5819 13.9111C15.5035 13.8693 15.4448 13.8371 15.3905 13.8056C15.2216 13.7076 15.1098 13.6268 15.0243 13.5185C14.8218 13.2617 14.8636 12.9129 15.1474 12.7197C15.2864 12.6252 15.4741 12.571 15.7489 12.5283C15.7727 12.5246 16.0607 12.4806 16.1425 12.4678C16.274 12.4471 16.3913 12.4274 16.496 12.4092C15.8075 12.2946 14.824 12.3363 14.3915 12.5596L13.9804 11.7637Z" fill="#AD1619"/>
<path d="M5.92317 12.4001L6.25375 12.4685V12.9613C5.90166 13.2422 5.00781 13.7157 5.00781 13.7157V12.4001H5.92317Z" fill="#F1F9FF"/>
<path d="M16.3146 12.4001L15.984 12.4685V12.9613C16.3361 13.2422 17.23 13.7157 17.23 13.7157V12.4001H16.3146Z" fill="#F1F9FF"/>
<path d="M9.26123 6.42216C9.26123 6.42216 10.1995 6.01672 11.1304 6.10771L11.1294 6.10966C11.7489 6.04963 12.3616 6.15454 12.9663 6.42216C13.5966 6.42227 14.1999 6.62894 14.7759 7.04228V7.20634L13.646 8.34013C13.4202 8.96623 13.0172 8.9995 12.7036 9.1038C12.5978 9.13792 11.1525 9.17828 11.1265 9.179C11.1265 9.179 11.1265 9.17737 11.1265 9.17509C8.89923 9.43193 8.58154 8.34013 8.58154 8.34013L7.45166 7.20634V7.04228C7.45166 7.04228 8.31562 6.42227 9.26123 6.42216Z" fill="#AD1619"/>
<path d="M12.8691 7.50146C12.894 7.78023 12.9704 7.91087 13.083 7.9292C13.2361 7.95408 13.3523 7.9428 13.4336 7.89893L13.5986 7.80908V7.96143C13.6506 7.96695 13.7403 7.95767 13.8623 7.93115L13.8975 8.09326L14.7236 7.31689L14.7998 7.39893L13.7725 8.36475C13.6226 8.64077 13.5469 8.82325 13.5469 8.89893C13.5468 9.01437 13.2464 9.08245 12.6602 9.15283C12.2009 9.20795 11.6591 9.24301 11.2158 9.24854V9.25146C11.1972 9.25146 11.1783 9.24964 11.1592 9.24951C11.1404 9.24963 11.1219 9.25146 11.1035 9.25146V9.24854C10.6602 9.243 10.1184 9.20796 9.65918 9.15283C9.07296 9.08245 8.7725 9.01437 8.77246 8.89893C8.77246 8.88299 8.76743 8.86267 8.76074 8.8374C8.70494 8.76277 8.66459 8.64642 8.6377 8.53955C8.61122 8.48641 8.58114 8.42784 8.54688 8.36475L8.31934 8.15088C8.31741 8.15046 8.31541 8.15032 8.31348 8.1499V8.146L7.51953 7.39893L7.59668 7.31689L8.3418 8.01807L8.36133 7.93115C8.48301 7.95759 8.57207 7.9669 8.62402 7.96143V7.80908L8.78906 7.89893C8.87037 7.94293 8.98726 7.95416 9.14062 7.9292C9.25324 7.91084 9.32964 7.7802 9.35449 7.50146L9.4043 6.93896L9.57227 7.47803C9.64842 7.72209 9.76526 7.82959 9.93066 7.82959C10.0919 7.82952 10.1569 7.77068 10.1641 7.62158L10.1846 7.19775L10.376 7.57666C10.4449 7.71249 10.5399 7.77382 10.6748 7.77393C10.8683 7.77393 10.998 7.61291 10.998 7.35986H11.2256C11.2256 7.61277 11.3546 7.77375 11.5479 7.77393C11.683 7.77393 11.7787 7.7127 11.8477 7.57666L12.0391 7.19775L12.0596 7.62158C12.0668 7.77076 12.1315 7.82959 12.293 7.82959C12.4584 7.82959 12.5742 7.72208 12.6504 7.47803L12.8193 6.93896L12.8691 7.50146ZM11.0986 8.66064C10.8067 8.67922 9.19111 8.78649 8.94531 8.90088C8.94114 8.90283 8.93573 8.90227 8.93164 8.90381C8.96794 8.91728 9.01755 8.93349 9.08008 8.94775C9.22408 8.9806 9.42903 9.01332 9.67188 9.04248C10.1463 9.09944 10.7106 9.13521 11.1592 9.13818C11.6079 9.13527 12.1727 9.09949 12.6475 9.04248C12.8903 9.01332 13.0952 8.98059 13.2393 8.94775C13.3126 8.93103 13.3694 8.91444 13.4062 8.89893C13.4194 8.89341 13.429 8.88758 13.4355 8.8833C13.4368 8.86539 13.4418 8.84546 13.4473 8.82275C13.3968 8.89764 13.334 8.9388 13.2529 8.90088C13.0082 8.78636 11.3893 8.67914 11.0986 8.66064ZM12.7139 7.84717C12.6247 7.96068 12.5107 8.02526 12.374 8.04443C13.087 8.14455 13.5913 8.28597 13.6074 8.29053C13.6074 8.29053 13.5944 8.39917 13.5635 8.52588C13.5958 8.45948 13.6342 8.38505 13.6787 8.30322L13.6895 8.28955L13.8213 8.16455C13.6364 8.19755 13.5033 8.19667 13.4326 8.13916C13.3227 8.17113 13.194 8.1748 13.0469 8.15088C12.8896 8.12529 12.7798 8.02065 12.7139 7.84717ZM9.50879 7.84717C9.4429 8.02048 9.33386 8.12528 9.17676 8.15088C9.02968 8.17481 8.90088 8.17106 8.79102 8.13916C8.73569 8.18421 8.64158 8.19409 8.51465 8.18115L8.62207 8.28174C8.74514 8.24866 9.21133 8.13039 9.83496 8.04346C9.7046 8.02162 9.59485 7.95681 9.50879 7.84717ZM11.9023 7.86963C11.8455 7.91983 11.7798 7.95329 11.707 7.97412C11.8252 7.98299 11.9408 7.9921 12.0527 8.00439C11.9895 7.9734 11.9387 7.92809 11.9023 7.86963ZM10.3203 7.86963C10.2851 7.92631 10.2363 7.96959 10.1758 8.00049C10.2841 7.98891 10.3958 7.98049 10.5098 7.97217C10.4396 7.95107 10.3755 7.91836 10.3203 7.86963ZM11.1113 7.7583C11.0549 7.84589 10.9797 7.91316 10.8867 7.95361C10.9421 7.95188 10.9977 7.94936 11.0537 7.94873V7.94678C11.0686 7.94678 11.0838 7.94767 11.0986 7.94775C11.1136 7.94767 11.1286 7.94678 11.1436 7.94678V7.94873C11.2091 7.94946 11.2742 7.95236 11.3389 7.95459C11.2447 7.9142 11.1683 7.84675 11.1113 7.7583Z" fill="#C88A02"/>
<path fill-rule="evenodd" clip-rule="evenodd" d="M11.1119 5.34705C11.2974 5.34705 11.4479 5.19662 11.4479 5.01105C11.4479 4.82548 11.2974 4.67505 11.1119 4.67505C10.9263 4.67505 10.7759 4.82548 10.7759 5.01105C10.7759 5.19662 10.9263 5.34705 11.1119 5.34705Z" fill="#005BBF"/>
<path d="M7.78475 7.26507C7.87339 7.23797 7.98164 7.33521 8.02694 7.48284C8.03854 7.5208 8.04404 7.55884 8.04549 7.59417C8.07633 7.55777 8.11609 7.52141 8.16658 7.49456C8.30308 7.42205 8.44921 7.43024 8.49276 7.51214C8.53584 7.59407 8.46012 7.71896 8.32381 7.79143C8.18758 7.86373 8.04239 7.85633 7.99862 7.77483C7.99751 7.77276 7.99664 7.77013 7.99569 7.768C7.98214 7.78263 7.96722 7.79451 7.94881 7.80022C7.86008 7.82735 7.75086 7.72936 7.70565 7.58147C7.66047 7.43362 7.69603 7.29219 7.78475 7.26507ZM14.359 7.22991C14.4477 7.25704 14.4833 7.39941 14.4381 7.54729C14.3929 7.69498 14.2845 7.79295 14.1959 7.76604C14.1773 7.76035 14.1617 7.74861 14.148 7.73382C14.1471 7.73587 14.1471 7.73865 14.1461 7.74065C14.1024 7.82235 13.9563 7.82972 13.8199 7.75726C13.6834 7.68466 13.6074 7.5589 13.651 7.47698C13.6946 7.39523 13.8408 7.38802 13.9771 7.46038C14.0268 7.48681 14.0665 7.52228 14.0972 7.55804C14.0988 7.52322 14.1054 7.48599 14.1168 7.44866C14.1619 7.30121 14.2704 7.20337 14.359 7.22991ZM9.32479 6.80218C9.41577 6.78461 9.513 6.89279 9.54256 7.04436C9.55329 7.09954 9.55001 7.15235 9.54158 7.19866C9.57636 7.18937 9.61531 7.18401 9.65584 7.18401C9.8101 7.18414 9.93481 7.25944 9.93514 7.35198C9.93514 7.44469 9.8103 7.51982 9.65584 7.51995C9.5012 7.51995 9.37557 7.44477 9.37557 7.35198C9.37558 7.35 9.37643 7.34809 9.37655 7.34612C9.37556 7.3458 9.3746 7.3455 9.37362 7.34515C9.37378 7.34745 9.37556 7.34965 9.37557 7.35198C9.37557 7.44477 9.24994 7.51995 9.0953 7.51995C8.94072 7.5199 8.81502 7.44474 8.81502 7.35198C8.81535 7.25939 8.94092 7.18406 9.0953 7.18401C9.15199 7.18401 9.20355 7.19788 9.24764 7.21526C9.23247 7.18355 9.221 7.14752 9.21346 7.10882C9.18395 6.95702 9.23371 6.81988 9.32479 6.80218ZM12.7799 6.76018C12.8724 6.75556 12.9544 6.87738 12.9625 7.03167C12.9654 7.08781 12.9539 7.13933 12.939 7.18401C12.9748 7.17962 13.014 7.18031 13.0543 7.18597C13.2073 7.20757 13.3211 7.29922 13.3082 7.39104C13.2951 7.48281 13.1604 7.53947 13.0074 7.518C12.8543 7.49648 12.7406 7.4048 12.7535 7.31292C12.7538 7.31063 12.754 7.30833 12.7545 7.30608L12.7525 7.30511C12.7524 7.30767 12.7539 7.31036 12.7535 7.31292C12.7406 7.4048 12.6059 7.46139 12.4527 7.43987C12.2996 7.41834 12.1859 7.32666 12.1988 7.23479C12.2119 7.14301 12.3466 7.08633 12.4996 7.10784C12.5553 7.11568 12.6041 7.13556 12.6451 7.15862C12.6347 7.12535 12.6286 7.08825 12.6265 7.04925C12.6185 6.89482 12.6872 6.76504 12.7799 6.76018ZM11.0045 6.68987C11.0956 6.67217 11.1937 6.78124 11.2232 6.93304C11.2338 6.98795 11.2296 7.04023 11.2213 7.08636C11.2561 7.07703 11.2949 7.07268 11.3355 7.07268C11.4901 7.07271 11.6158 7.14789 11.6158 7.24065C11.6155 7.33328 11.49 7.40859 11.3355 7.40862C11.1811 7.40862 11.0555 7.33329 11.0553 7.24065C11.0553 7.23846 11.0561 7.23599 11.0562 7.23382C11.0552 7.23349 11.0543 7.2332 11.0533 7.23284C11.0535 7.23537 11.0553 7.23809 11.0553 7.24065C11.055 7.33329 10.9294 7.40862 10.775 7.40862C10.6207 7.40847 10.496 7.3332 10.4957 7.24065C10.4957 7.14796 10.6206 7.07283 10.775 7.07268C10.8319 7.07268 10.8841 7.08546 10.9283 7.10296C10.9131 7.0712 10.9007 7.03528 10.8931 6.99651C10.8637 6.84486 10.9135 6.70767 11.0045 6.68987Z" fill="#C88A02"/>
<path d="M11.2192 4.22412H11.3726V4.45752H11.2192V4.92432H11.3726V5.15771H10.8315V4.92432H10.9868V4.45752H10.8315V4.22412H10.9868V4.07666H11.2192V4.22412Z" fill="#C88A02"/>
<rect x="10.9434" y="5.34399" width="0.448" height="1.456" fill="#C88A02"/>
<path d="M9.14018 5.58785L9.13823 5.69984C8.14513 5.6825 7.57547 5.82742 7.43087 6.11627C7.28137 6.4149 7.30917 6.77792 7.51865 7.20915L7.41791 7.25809C7.1944 6.79799 7.16388 6.3994 7.33072 6.06614C7.50245 5.7231 8.10507 5.56978 9.14018 5.58785Z" fill="white"/>
<path d="M9.33213 6.58095L9.27471 6.67711C9.05844 6.54798 8.9502 6.3276 8.9502 6.0239C8.9502 5.58742 9.17504 5.33147 9.67239 5.15631C9.98981 5.04452 10.4234 5.09035 10.9744 5.29013L10.9363 5.39542C10.4073 5.20364 9.998 5.16038 9.7096 5.26195C9.25341 5.42261 9.0622 5.64028 9.0622 6.0239C9.0622 6.29041 9.1521 6.47346 9.33213 6.58095Z" fill="white"/>
<path d="M7.65982 7.03733L7.44847 7.11156C7.22919 6.48721 7.29181 6.0632 7.66651 5.88029C7.99667 5.71912 8.47786 5.65353 9.11245 5.67925L9.10338 5.90306C8.50255 5.87872 8.05554 5.93965 7.76477 6.08159C7.51852 6.20179 7.47348 6.50678 7.65982 7.03733Z" fill="#C88A02"/>
<path d="M10.1289 5.4386C9.61679 5.4386 9.40647 5.56333 9.28632 5.93162C9.20975 6.16632 9.28401 6.36664 9.5248 6.55362L9.38742 6.73054C9.07568 6.48846 8.96576 6.19198 9.07337 5.86215C9.22649 5.3928 9.52695 5.2146 10.1289 5.2146C10.5235 5.2146 10.8308 5.31826 11.0448 5.52922L11.0782 5.56212V6.64208H10.8542V5.65786C10.6871 5.51268 10.447 5.4386 10.1289 5.4386Z" fill="#C88A02"/>
<path d="M13.0488 5.69991L13.0507 5.8119C14.0438 5.79456 14.6135 5.93948 14.7581 6.22833C14.9076 6.52696 14.8798 6.88998 14.6703 7.32121L14.7711 7.37015C14.9946 6.91005 15.0251 6.51146 14.8582 6.1782C14.6865 5.83516 14.0839 5.68184 13.0488 5.69991Z" fill="white"/>
<path d="M12.6981 6.60414L12.7556 6.7003C12.9718 6.57117 13.0801 6.3508 13.0801 6.04709C13.0801 5.61061 12.8552 5.35466 12.3579 5.1795C12.0405 5.06771 11.6068 5.11355 11.0558 5.31332L11.094 5.41862C11.623 5.22683 12.0323 5.18357 12.3207 5.28514C12.7769 5.4458 12.9681 5.66347 12.9681 6.04709C12.9681 6.31361 12.8782 6.49665 12.6981 6.60414Z" fill="white"/>
<path d="M14.599 7.14939L14.8103 7.22362C15.0296 6.59927 14.967 6.17526 14.5923 5.99235C14.2621 5.83118 13.7809 5.76559 13.1463 5.79131L13.1554 6.01513C13.7562 5.99078 14.2032 6.05171 14.494 6.19365C14.7403 6.31385 14.7853 6.61884 14.599 7.14939Z" fill="#C88A02"/>
<path d="M12.1167 5.45593C12.6288 5.45593 12.8391 5.58067 12.9593 5.94895C13.0359 6.18366 12.9616 6.38397 12.7208 6.57096L12.8582 6.74788C13.1699 6.5058 13.2798 6.20931 13.1722 5.87948C13.0191 5.41013 12.7187 5.23193 12.1167 5.23193C11.7221 5.23193 11.4148 5.33559 11.2008 5.54655L11.1674 5.57945V6.65942H11.3914V5.67519C11.5585 5.53002 11.7986 5.45593 12.1167 5.45593Z" fill="#C88A02"/>
<path opacity="0.3" fill-rule="evenodd" clip-rule="evenodd" d="M7.47168 9.26416H14.7517V15.805C14.7517 15.805 14.2109 18.0002 11.1117 18.0002C8.01245 18.0002 7.47168 15.7471 7.47168 15.7471V9.26416Z" fill="#E1E5E8"/>
<mask id="mask3_6021_67075" style="mask-type:luminance" maskUnits="userSpaceOnUse" x="7" y="9" width="8" height="9">
<path fill-rule="evenodd" clip-rule="evenodd" d="M7.47168 9.26416H14.7517V15.805C14.7517 15.805 14.2109 18.0002 11.1117 18.0002C8.01245 18.0002 7.47168 15.7471 7.47168 15.7471V9.26416Z" fill="white"/>
</mask>
<g mask="url(#mask3_6021_67075)">
<rect x="7.47168" y="13.2961" width="3.696" height="4.368" fill="#FFC034"/>
<rect x="7.91992" y="13.5203" width="0.448" height="4.144" fill="#AD1619"/>
<rect x="9.48779" y="13.5203" width="0.448" height="4.144" fill="#AD1619"/>
<rect x="8.70361" y="13.5203" width="0.448" height="4.144" fill="#AD1619"/>
<rect x="10.2715" y="13.5203" width="0.448" height="4.144" fill="#AD1619"/>
<rect x="7.47168" y="9.1521" width="3.696" height="4.256" fill="#AD1619"/>
<rect x="11.0557" y="13.1841" width="3.696" height="4.256" fill="#AD1619"/>
<rect x="11.0557" y="9.26416" width="3.92" height="4.144" fill="#F1F9FF"/>
<path d="M9.37598 10.5288H9.59961V10.0649H9.93555V10.5288H10.2715V11.1099H9.93555V12.1558H10.2715V12.7358H8.25586V12.1558H8.5918V11.1099H8.25586V10.5288H8.47949V10.0649H8.81543V10.5288H9.04004V9.6001H9.37598V10.5288Z" fill="#C88A02"/>
<path d="M12.626 9.80486C12.8925 9.69841 13.2031 9.81047 13.4668 10.1867C13.6171 10.4012 13.6172 10.6379 13.4707 10.8254C13.3968 10.9199 13.295 10.9916 13.1709 11.05C13.2648 11.1826 13.3215 11.2571 13.418 11.3664C13.4638 11.4182 13.5038 11.4678 13.5401 11.5138C13.575 11.494 13.6192 11.4775 13.6739 11.4611C13.6825 11.4585 13.6918 11.4559 13.7012 11.4533C13.7358 11.4437 13.7608 11.4357 13.7813 11.4289C13.8736 11.3979 13.8705 11.4084 13.8701 11.1398C13.8701 11.1192 13.8702 11.1183 13.8701 11.0968C13.8701 11.0294 13.8678 10.9717 13.8623 10.84C13.8621 10.834 13.8626 10.8332 13.8623 10.8273C13.8422 10.3432 13.8597 10.1575 14.0078 10.0246L14.1573 10.1916C14.0855 10.2564 14.0696 10.4232 14.086 10.8176C14.0862 10.8238 14.0857 10.8248 14.086 10.8312C14.0916 10.966 14.0938 11.0252 14.0938 11.0968C14.0938 11.1179 14.0938 11.1186 14.0938 11.1388C14.0942 11.4951 14.0671 11.5697 13.8526 11.6418C13.8276 11.6501 13.7988 11.6586 13.7608 11.6691C13.7529 11.6713 13.7454 11.6738 13.7383 11.676C13.7071 11.6853 13.6844 11.6898 13.669 11.6965C13.69 11.7321 13.7077 11.7655 13.7207 11.797C13.7808 11.9427 13.7614 12.0809 13.6504 12.1593C13.6508 12.1612 13.651 12.1635 13.6514 12.1652C13.6522 12.169 13.6533 12.1734 13.6563 12.1847C13.6692 12.2376 13.6667 12.2918 13.6426 12.506C13.629 12.6272 13.629 12.7071 13.6367 12.7287C13.6293 12.708 13.6018 12.6847 13.5635 12.6847L13.5567 12.6789C13.5547 12.681 13.5526 12.6828 13.5508 12.6847H13.5635L13.5713 12.6916C13.5672 12.6922 13.5631 12.6937 13.5596 12.6945L13.5489 12.6847C13.5395 12.6947 13.533 12.7025 13.5283 12.7062L13.5303 12.7052C13.5367 12.7014 13.5463 12.6976 13.5596 12.6945L13.708 12.8293C13.6139 12.9332 13.4787 12.9502 13.4258 12.8039C13.4024 12.7388 13.4025 12.6359 13.42 12.4806C13.4404 12.299 13.4423 12.2548 13.4385 12.2385C13.4363 12.23 13.4337 12.2204 13.4317 12.2111C13.4237 12.1733 13.4196 12.1226 13.419 12.0392L13.3311 12.2316C13.2314 12.1855 13.1799 12.1436 13.167 12.0705C13.1625 12.0447 13.1652 12.0212 13.1719 11.9972C13.175 11.986 13.1786 11.9741 13.1836 11.9611C13.1952 11.9291 13.1923 11.9102 13.1416 11.841C13.1292 11.824 13.1169 11.8055 13.1035 11.7863C13.0993 11.785 13.095 11.7836 13.0908 11.7824C13.0381 11.7669 12.9928 11.7555 12.9561 11.7482C12.9682 11.7799 12.9828 11.8145 13 11.8537C13.0025 11.8591 13.0617 11.9903 13.0762 12.0256C13.1061 12.0981 13.1219 12.1524 13.125 12.2062C13.138 12.4354 12.9528 12.4908 12.7217 12.423C12.5493 12.3724 12.461 12.352 12.4366 12.3527C12.513 12.3505 12.5547 12.2668 12.5498 12.2355L12.2178 12.2873C12.1955 12.1446 12.2576 12.0216 12.4278 12.0168C12.4922 12.015 12.5746 12.0313 12.7305 12.0754C12.7198 12.0511 12.7072 12.0222 12.6924 11.9885C12.6553 11.904 12.6282 11.8363 12.6075 11.7677C12.5493 11.5756 12.647 11.4247 12.833 11.4054C12.8426 11.4045 12.8524 11.4048 12.8623 11.4045C12.8223 11.3374 12.7802 11.2647 12.7354 11.1867C12.7105 11.1915 12.6876 11.1981 12.666 11.2013L12.6524 11.1144C12.5591 11.2184 12.4656 11.3149 12.3731 11.3879C12.1501 11.5636 11.9424 11.6225 11.7862 11.4474L12.0371 11.2238C12.0288 11.2145 12.0155 11.2114 12.0235 11.2092C12.0566 11.1997 12.1063 11.1705 12.1651 11.1242C12.2281 11.0745 12.2949 11.0079 12.3633 10.9347C12.2691 10.8721 12.1765 10.7857 12.0869 10.6769C12.0195 10.595 11.9608 10.5404 11.9053 10.5021C11.8776 10.483 11.7948 10.4377 11.7832 10.4299C11.6448 10.3368 11.6525 10.2483 11.7364 10.0373L12.0489 10.1613C12.0449 10.1712 12.0413 10.1805 12.0381 10.1886C12.0582 10.2005 12.0794 10.2136 12.0957 10.2248C12.1777 10.2812 12.2596 10.3581 12.3467 10.464C12.4327 10.5685 12.5122 10.6382 12.586 10.6779L12.5821 10.6476C12.5969 10.6454 12.6276 10.6392 12.668 10.6301C12.7355 10.6148 12.8027 10.5953 12.8633 10.5724C12.9258 10.5489 12.9747 10.5239 13.0039 10.5031C12.9288 10.397 12.8688 10.3453 12.8272 10.3302C12.8211 10.3281 12.8264 10.3284 12.834 10.3254C12.842 10.3222 12.8517 10.3161 12.8643 10.3068L12.5313 9.85662C12.5552 9.83891 12.5867 9.82054 12.626 9.80486ZM13.4112 11.9269C13.4123 11.9573 13.4102 11.9869 13.4014 12.0168C13.4066 12.0195 13.4124 12.0225 13.419 12.0256C13.419 12.0224 13.419 12.0191 13.419 12.0158C13.419 11.9909 13.4177 11.9673 13.417 11.9416C13.4157 11.9392 13.4141 11.9342 13.4112 11.9269Z" fill="#C37C9C"/>
<path d="M12.9785 9.7951L13.2079 9.54956L13.6894 9.99939L13.4601 10.2449L12.9785 9.7951Z" fill="#C88A02"/>
<path d="M14.3594 16.1404L14.3545 16.1599C14.2121 16.7505 13.73 17.0485 12.96 17.0486C12.1888 17.0486 11.7062 16.7424 11.5645 16.1384L11.5596 16.1199V13.6882H14.3594V16.1404ZM11.8955 16.0798C12.0029 16.5035 12.3413 16.7126 12.96 16.7126C13.5787 16.7126 13.9163 16.5091 14.0234 16.0994V14.0242H11.8955V16.0798Z" fill="#FFC034"/>
<path d="M13.0757 14.8872L13.8872 14.0044L14.0522 14.1558L13.2202 15.061H14.1509V15.397H13.2026L14.0522 16.3218L13.8872 16.4731L13.0757 15.5894V16.772H12.8423V15.4722L11.9224 16.4731L11.7573 16.3218L12.606 15.397H11.8354V15.061H12.5903L11.7573 14.1558L11.9224 14.0044L12.8423 15.0044V13.8931H13.0757V14.8872Z" fill="#FFC034"/>
<path fill-rule="evenodd" clip-rule="evenodd" d="M13.4822 17.4428C13.4822 17.4428 11.11 17.6293 11.11 16.0994C11.11 16.0994 11.0874 17.4428 8.61035 17.4428V18.6506H13.4822V17.4428Z" fill="#F1F9FF"/>
<path fill-rule="evenodd" clip-rule="evenodd" d="M11.1115 14.1921C11.5754 14.1921 11.9515 13.791 11.9515 13.2961C11.9515 12.8013 11.5754 12.4001 11.1115 12.4001C10.6476 12.4001 10.2715 12.8013 10.2715 13.2961C10.2715 13.791 10.6476 14.1921 11.1115 14.1921Z" fill="#005BBF" stroke="#AD1619" stroke-width="1.16667"/>
</g>
</g>
</g>
<defs>
<clipPath id="clip0_6021_67075">
<rect width="32" height="24" fill="white"/>
</clipPath>
</defs>
</svg>
