<svg width="34" height="26" viewBox="0 0 34 26" fill="none" xmlns="http://www.w3.org/2000/svg">
<g clip-path="url(#clip0_6021_64253)">
<rect x="1" y="1" width="32" height="24" fill="white"/>
<path fill-rule="evenodd" clip-rule="evenodd" d="M1 1V25H33V1H1Z" fill="#FFB400"/>
<mask id="mask0_6021_64253" style="mask-type:luminance" maskUnits="userSpaceOnUse" x="1" y="1" width="32" height="24">
<path fill-rule="evenodd" clip-rule="evenodd" d="M1 1V25H33V1H1Z" fill="white"/>
</mask>
<g mask="url(#mask0_6021_64253)">
<path fill-rule="evenodd" clip-rule="evenodd" d="M1 1V7H33V1H1Z" fill="#C51918"/>
<path fill-rule="evenodd" clip-rule="evenodd" d="M1 19V25H33V19H1Z" fill="#C51918"/>
<rect x="6.00803" y="11.272" width="1.12" height="5.824" fill="#F1F9FF"/>
<path d="M7.57562 10.8235H7.23969V11.2718H5.89594V10.8235H5.56V10.264H7.57562V10.8235Z" fill="#C88A02"/>
<path fill-rule="evenodd" clip-rule="evenodd" d="M7.24 17.432H7.576V17.992H5.56V17.432H5.896V16.984H7.24V17.432Z" fill="#C88A02"/>
<path fill-rule="evenodd" clip-rule="evenodd" d="M6.56803 10.376C6.81176 10.376 6.83653 10.2842 6.98033 10.1471C7.09198 10.0407 7.35203 9.90869 7.35203 9.75998C7.35203 9.41977 7.00102 9.14398 6.56803 9.14398C6.13504 9.14398 5.78403 9.41977 5.78403 9.75998C5.78403 9.92565 5.96311 10.0364 6.09851 10.1471C6.24117 10.2638 6.34589 10.376 6.56803 10.376Z" fill="#AD1619"/>
<path fill-rule="evenodd" clip-rule="evenodd" d="M5.56 17.992H7.576V18.888C7.576 18.888 7.324 18.776 7.072 18.776C6.82 18.776 6.568 18.888 6.568 18.888C6.568 18.888 6.316 18.776 6.064 18.776C5.812 18.776 5.56 18.888 5.56 18.888V17.992Z" fill="#005BBF"/>
<mask id="mask1_6021_64253" style="mask-type:luminance" maskUnits="userSpaceOnUse" x="5" y="17" width="3" height="2">
<path fill-rule="evenodd" clip-rule="evenodd" d="M5.56 17.992H7.576V18.888C7.576 18.888 7.324 18.776 7.072 18.776C6.82 18.776 6.568 18.888 6.568 18.888C6.568 18.888 6.316 18.776 6.064 18.776C5.812 18.776 5.56 18.888 5.56 18.888V17.992Z" fill="white"/>
</mask>
<g mask="url(#mask1_6021_64253)">
<path d="M5.54177 18.7119L5.49777 18.6046C5.67935 18.5238 5.86158 18.4833 6.04408 18.4833C6.16198 18.4833 6.22356 18.4997 6.32823 18.5463C6.42017 18.5872 6.46783 18.5999 6.56838 18.5999C6.66893 18.5999 6.71659 18.5872 6.80853 18.5463C6.9132 18.4997 6.97477 18.4833 7.09268 18.4833C7.27518 18.4833 7.45741 18.5238 7.63899 18.6046L7.59498 18.7119C7.42703 18.6372 7.25972 18.5999 7.09268 18.5999C6.99213 18.5999 6.94447 18.6127 6.85253 18.6536C6.74786 18.7002 6.68629 18.7166 6.56838 18.7166C6.45047 18.7166 6.3889 18.7002 6.28423 18.6536C6.19229 18.6127 6.14463 18.5999 6.04408 18.5999C5.87704 18.5999 5.70973 18.6372 5.54177 18.7119Z" fill="white"/>
<path d="M5.54177 18.3759L5.49777 18.2686C5.67935 18.1878 5.86158 18.1473 6.04408 18.1473C6.16198 18.1473 6.22356 18.1637 6.32823 18.2103C6.42017 18.2512 6.46783 18.2639 6.56838 18.2639C6.66893 18.2639 6.71659 18.2512 6.80853 18.2103C6.9132 18.1637 6.97477 18.1473 7.09268 18.1473C7.27518 18.1473 7.45741 18.1878 7.63899 18.2686L7.59498 18.3759C7.42703 18.3012 7.25972 18.2639 7.09268 18.2639C6.99213 18.2639 6.94447 18.2767 6.85253 18.3176C6.74786 18.3642 6.68629 18.3806 6.56838 18.3806C6.45047 18.3806 6.3889 18.3642 6.28423 18.3176C6.19229 18.2767 6.14463 18.2639 6.04408 18.2639C5.87704 18.2639 5.70973 18.3012 5.54177 18.3759Z" fill="white"/>
</g>
<rect x="16.984" y="11.272" width="1.12" height="5.824" fill="#F1F9FF"/>
<path d="M18.5516 10.8235H18.2157V11.2718H16.8719V10.8235H16.536V10.264H18.5516V10.8235Z" fill="#C88A02"/>
<path fill-rule="evenodd" clip-rule="evenodd" d="M18.216 17.432H18.552V17.992H16.536V17.432H16.872V16.984H18.216V17.432Z" fill="#C88A02"/>
<path fill-rule="evenodd" clip-rule="evenodd" d="M17.544 10.376C17.7877 10.376 17.8125 10.2842 17.9563 10.1471C18.068 10.0407 18.328 9.90869 18.328 9.75998C18.328 9.41977 17.977 9.14398 17.544 9.14398C17.111 9.14398 16.76 9.41977 16.76 9.75998C16.76 9.92565 16.9391 10.0364 17.0745 10.1471C17.2171 10.2638 17.3219 10.376 17.544 10.376Z" fill="#AD1619"/>
<path fill-rule="evenodd" clip-rule="evenodd" d="M16.536 17.992H18.552V18.888C18.552 18.888 18.3 18.776 18.048 18.776C17.796 18.776 17.544 18.888 17.544 18.888C17.544 18.888 17.292 18.776 17.04 18.776C16.788 18.776 16.536 18.888 16.536 18.888V17.992Z" fill="#005BBF"/>
<mask id="mask2_6021_64253" style="mask-type:luminance" maskUnits="userSpaceOnUse" x="16" y="17" width="3" height="2">
<path fill-rule="evenodd" clip-rule="evenodd" d="M16.536 17.992H18.552V18.888C18.552 18.888 18.3 18.776 18.048 18.776C17.796 18.776 17.544 18.888 17.544 18.888C17.544 18.888 17.292 18.776 17.04 18.776C16.788 18.776 16.536 18.888 16.536 18.888V17.992Z" fill="white"/>
</mask>
<g mask="url(#mask2_6021_64253)">
<path d="M16.5178 18.7119L16.4738 18.6046C16.6554 18.5238 16.8376 18.4833 17.0201 18.4833C17.138 18.4833 17.1996 18.4997 17.3042 18.5463C17.3962 18.5872 17.4438 18.5999 17.5444 18.5999C17.6449 18.5999 17.6926 18.5872 17.7845 18.5463C17.8892 18.4997 17.9508 18.4833 18.0687 18.4833C18.2512 18.4833 18.4334 18.5238 18.615 18.6046L18.571 18.7119C18.403 18.6372 18.2357 18.5999 18.0687 18.5999C17.9681 18.5999 17.9205 18.6127 17.8285 18.6536C17.7239 18.7002 17.6623 18.7166 17.5444 18.7166C17.4265 18.7166 17.3649 18.7002 17.2602 18.6536C17.1683 18.6127 17.1206 18.5999 17.0201 18.5999C16.8531 18.5999 16.6857 18.6372 16.5178 18.7119Z" fill="white"/>
<path d="M16.5178 18.3759L16.4738 18.2686C16.6554 18.1878 16.8376 18.1473 17.0201 18.1473C17.138 18.1473 17.1996 18.1637 17.3042 18.2103C17.3962 18.2512 17.4438 18.2639 17.5444 18.2639C17.6449 18.2639 17.6926 18.2512 17.7845 18.2103C17.8892 18.1637 17.9508 18.1473 18.0687 18.1473C18.2512 18.1473 18.4334 18.1878 18.615 18.2686L18.571 18.3759C18.403 18.3012 18.2357 18.2639 18.0687 18.2639C17.9681 18.2639 17.9205 18.2767 17.8285 18.3176C17.7239 18.3642 17.6623 18.3806 17.5444 18.3806C17.4265 18.3806 17.3649 18.3642 17.2602 18.3176C17.1683 18.2767 17.1206 18.2639 17.0201 18.2639C16.8531 18.2639 16.6857 18.3012 16.5178 18.3759Z" fill="white"/>
</g>
<path d="M5.38781 12.8721C6.13787 12.3555 8.14596 12.3088 9.02746 12.7637L8.61632 13.5596C8.18368 13.3365 7.2011 13.2947 6.51281 13.4092C6.61739 13.4274 6.73492 13.4471 6.86632 13.4678C6.9486 13.4807 7.23674 13.5247 7.25988 13.5283C7.53465 13.5711 7.72248 13.6251 7.86144 13.7197C8.14513 13.9129 8.18698 14.2618 7.98449 14.5185C7.89906 14.6268 7.78717 14.7077 7.61828 14.8056C7.56402 14.8371 7.50528 14.8693 7.42687 14.9111C7.41087 14.9197 7.27471 14.9921 7.23449 15.0137C7.07304 15.1004 6.96686 15.1632 6.88781 15.2207C6.764 15.3107 6.63644 15.384 6.4923 15.4531C6.41524 15.49 6.1972 15.5853 6.19347 15.5869C6.18908 15.5889 6.18486 15.5909 6.18078 15.5928C6.25836 15.6979 6.3028 15.8267 6.30285 15.9756C6.30282 16.2121 6.18931 16.4349 5.98742 16.6797L5.29992 16.1123L5.23449 16.0928L5.19836 15.8056C5.13081 15.2765 5.35649 14.9835 5.82238 14.7715C5.83474 14.7659 6.04554 14.6743 6.10558 14.6455C6.2039 14.5983 6.28479 14.5511 6.36046 14.4961C6.43516 14.4418 6.51572 14.3901 6.61242 14.334C6.03567 14.2413 5.72364 14.1733 5.48449 14.0703C4.91216 13.8237 4.83799 13.251 5.38781 12.8721ZM14.9806 12.7637C15.8619 12.3086 17.8701 12.3555 18.6202 12.8721C19.1704 13.2509 19.0969 13.8236 18.5245 14.0703C18.2854 14.1733 17.9734 14.2413 17.3966 14.334C17.4932 14.39 17.5729 14.4418 17.6476 14.4961C17.7233 14.5512 17.805 14.5983 17.9034 14.6455C17.964 14.6745 18.1738 14.7661 18.1857 14.7715C18.6518 14.9835 18.8782 15.2763 18.8107 15.8056L18.7745 16.0928L18.7081 16.1123L18.0206 16.6797C17.8188 16.4349 17.7062 16.2121 17.7062 15.9756C17.7062 15.8265 17.7505 15.6979 17.8282 15.5928C17.824 15.5909 17.8191 15.589 17.8146 15.5869C17.8073 15.5838 17.5918 15.4896 17.5157 15.4531C17.3717 15.384 17.2449 15.3106 17.1212 15.2207C17.0422 15.1632 16.936 15.1003 16.7745 15.0137C16.7349 14.9924 16.5993 14.9203 16.5821 14.9111C16.5037 14.8693 16.445 14.8371 16.3907 14.8056C16.2218 14.7076 16.11 14.6268 16.0245 14.5185C15.822 14.2617 15.8638 13.9129 16.1476 13.7197C16.2866 13.6252 16.4743 13.571 16.7491 13.5283C16.7729 13.5246 17.0609 13.4806 17.1427 13.4678C17.2742 13.4471 17.3916 13.4274 17.4962 13.4092C16.8077 13.2946 15.8242 13.3363 15.3917 13.5596L14.9806 12.7637Z" fill="#AD1619"/>
<path d="M6.92338 13.4L7.25397 13.4684V13.9611C6.90187 14.242 6.00803 14.7155 6.00803 14.7155V13.4H6.92338Z" fill="#F1F9FF"/>
<path d="M17.3146 13.4L16.984 13.4684V13.9611C17.3361 14.242 18.2299 14.7155 18.2299 14.7155V13.4H17.3146Z" fill="#F1F9FF"/>
<path d="M10.2616 7.4221C10.2616 7.4221 11.1998 7.01666 12.1307 7.10765L12.1297 7.1096C12.7492 7.04957 13.3619 7.15448 13.9666 7.4221C14.5969 7.42221 15.2003 7.62888 15.7762 8.04222V8.20628L14.6463 9.34007C14.4205 9.96616 14.0175 9.99944 13.7039 10.1037C13.5981 10.1379 12.1528 10.1782 12.1268 10.1789C12.1268 10.1789 12.1268 10.1773 12.1268 10.175C9.89957 10.4319 9.58188 9.34007 9.58188 9.34007L8.452 8.20628V8.04222C8.452 8.04222 9.31596 7.42221 10.2616 7.4221Z" fill="#AD1619"/>
<path d="M13.8694 8.5014C13.8942 8.78017 13.9706 8.91081 14.0832 8.92914C14.2363 8.95402 14.3526 8.94274 14.4338 8.89886L14.5988 8.80902V8.96136C14.6508 8.96689 14.7405 8.95761 14.8625 8.93109L14.8977 9.0932L15.7238 8.31683L15.8 8.39886L14.7727 9.36469C14.6228 9.64071 14.5471 9.82318 14.5471 9.89886C14.5471 10.0143 14.2466 10.0824 13.6604 10.1528C13.2011 10.2079 12.6593 10.2429 12.216 10.2485V10.2514C12.1974 10.2514 12.1785 10.2496 12.1594 10.2495C12.1406 10.2496 12.1221 10.2514 12.1037 10.2514V10.2485C11.6605 10.2429 11.1186 10.2079 10.6594 10.1528C10.0732 10.0824 9.77271 10.0143 9.77267 9.89886C9.77267 9.88292 9.76764 9.86261 9.76096 9.83734C9.70516 9.76271 9.66481 9.64635 9.63791 9.53949C9.61144 9.48635 9.58135 9.42778 9.54709 9.36469L9.31955 9.15082C9.31762 9.1504 9.31563 9.15026 9.31369 9.14984V9.14594L8.51974 8.39886L8.59689 8.31683L9.34201 9.01801L9.36154 8.93109C9.48322 8.95753 9.57228 8.96684 9.62424 8.96136V8.80902L9.78928 8.89886C9.87058 8.94287 9.98748 8.95409 10.1408 8.92914C10.2535 8.91078 10.3299 8.78013 10.3547 8.5014L10.4045 7.9389L10.5725 8.47797C10.6486 8.72203 10.7655 8.82953 10.9309 8.82953C11.0922 8.82946 11.1571 8.77062 11.1643 8.62152L11.1848 8.19769L11.3762 8.5766C11.4451 8.71243 11.5401 8.77375 11.675 8.77386C11.8685 8.77386 11.9983 8.61285 11.9983 8.3598H12.2258C12.2258 8.61271 12.3548 8.77369 12.5481 8.77386C12.6832 8.77386 12.7789 8.71263 12.8479 8.5766L13.0393 8.19769L13.0598 8.62152C13.067 8.7707 13.1317 8.82953 13.2932 8.82953C13.4586 8.82953 13.5744 8.72202 13.6506 8.47797L13.8195 7.9389L13.8694 8.5014ZM12.0988 9.66058C11.8069 9.67916 10.1913 9.78643 9.94553 9.90082C9.94135 9.90277 9.93594 9.9022 9.93185 9.90375C9.96816 9.91722 10.0178 9.93343 10.0803 9.94769C10.2243 9.98054 10.4292 10.0133 10.6721 10.0424C11.1465 10.0994 11.7109 10.1351 12.1594 10.1381C12.6081 10.1352 13.1729 10.0994 13.6477 10.0424C13.8905 10.0133 14.0954 9.98053 14.2395 9.94769C14.3128 9.93097 14.3696 9.91437 14.4065 9.89886C14.4196 9.89335 14.4292 9.88752 14.4358 9.88324C14.437 9.86533 14.4421 9.8454 14.4475 9.82269C14.397 9.89758 14.3342 9.93874 14.2531 9.90082C14.0084 9.7863 12.3895 9.67908 12.0988 9.66058ZM13.7141 8.84711C13.6249 8.96062 13.5109 9.0252 13.3742 9.04437C14.0872 9.14449 14.5915 9.28591 14.6076 9.29047C14.6076 9.29047 14.5946 9.39911 14.5637 9.52582C14.596 9.45941 14.6344 9.38498 14.6789 9.30316L14.6897 9.28949L14.8215 9.16449C14.6366 9.19749 14.5035 9.19661 14.4328 9.1391C14.323 9.17106 14.1942 9.17474 14.0471 9.15082C13.8899 9.12523 13.78 9.02059 13.7141 8.84711ZM10.509 8.84711C10.4431 9.02042 10.3341 9.12522 10.177 9.15082C10.0299 9.17475 9.90109 9.171 9.79123 9.1391C9.7359 9.18415 9.6418 9.19403 9.51486 9.18109L9.62228 9.28168C9.74536 9.24859 10.2115 9.13033 10.8352 9.0434C10.7048 9.02156 10.5951 8.95675 10.509 8.84711ZM12.9026 8.86957C12.8457 8.91977 12.78 8.95323 12.7072 8.97406C12.8254 8.98293 12.941 8.99204 13.0529 9.00433C12.9897 8.97333 12.9389 8.92803 12.9026 8.86957ZM11.3205 8.86957C11.2853 8.92625 11.2365 8.96953 11.176 9.00043C11.2843 8.98885 11.396 8.98043 11.51 8.97211C11.4398 8.95101 11.3757 8.9183 11.3205 8.86957ZM12.1115 8.75824C12.0551 8.84583 11.9799 8.9131 11.8869 8.95355C11.9423 8.95182 11.9979 8.9493 12.0539 8.94867V8.94672C12.0688 8.94672 12.084 8.94761 12.0988 8.94769C12.1138 8.94761 12.1288 8.94672 12.1438 8.94672V8.94867C12.2093 8.9494 12.2744 8.9523 12.3391 8.95453C12.245 8.91414 12.1685 8.84669 12.1115 8.75824Z" fill="#C88A02"/>
<path fill-rule="evenodd" clip-rule="evenodd" d="M12.1122 6.34705C12.2978 6.34705 12.4482 6.19662 12.4482 6.01105C12.4482 5.82548 12.2978 5.67505 12.1122 5.67505C11.9267 5.67505 11.7762 5.82548 11.7762 6.01105C11.7762 6.19662 11.9267 6.34705 12.1122 6.34705Z" fill="#005BBF"/>
<path d="M8.78539 8.26507C8.87403 8.23797 8.98229 8.33521 9.02758 8.48284C9.03918 8.5208 9.04468 8.55884 9.04613 8.59417C9.07697 8.55777 9.11673 8.52141 9.16723 8.49456C9.30372 8.42205 9.44985 8.43024 9.4934 8.51214C9.53648 8.59407 9.46076 8.71896 9.32445 8.79143C9.18822 8.86373 9.04303 8.85633 8.99926 8.77483C8.99815 8.77276 8.99728 8.77013 8.99633 8.768C8.98279 8.78263 8.96786 8.79451 8.94945 8.80022C8.86072 8.82735 8.7515 8.72936 8.70629 8.58147C8.66111 8.43362 8.69667 8.29219 8.78539 8.26507ZM15.3596 8.22991C15.4483 8.25704 15.4839 8.39941 15.4387 8.54729C15.3935 8.69498 15.2852 8.79295 15.1965 8.76604C15.1779 8.76035 15.1623 8.74861 15.1487 8.73382C15.1477 8.73587 15.1478 8.73865 15.1467 8.74065C15.103 8.82235 14.9569 8.82972 14.8205 8.75726C14.684 8.68466 14.608 8.5589 14.6516 8.47698C14.6952 8.39523 14.8414 8.38802 14.9778 8.46038C15.0275 8.48681 15.0672 8.52228 15.0979 8.55804C15.0995 8.52322 15.106 8.48599 15.1174 8.44866C15.1626 8.30121 15.271 8.20337 15.3596 8.22991ZM10.3254 7.80218C10.4164 7.78461 10.5136 7.89279 10.5432 8.04436C10.5539 8.09954 10.5506 8.15235 10.5422 8.19866C10.577 8.18937 10.616 8.18401 10.6565 8.18401C10.8107 8.18414 10.9355 8.25944 10.9358 8.35198C10.9358 8.44469 10.8109 8.51982 10.6565 8.51995C10.5018 8.51995 10.3762 8.44477 10.3762 8.35198C10.3762 8.35 10.3771 8.34809 10.3772 8.34612C10.3762 8.3458 10.3752 8.3455 10.3743 8.34515C10.3744 8.34745 10.3762 8.34965 10.3762 8.35198C10.3762 8.44477 10.2506 8.51995 10.0959 8.51995C9.94136 8.5199 9.81566 8.44474 9.81566 8.35198C9.81599 8.25939 9.94156 8.18406 10.0959 8.18401C10.1526 8.18401 10.2042 8.19788 10.2483 8.21526C10.2331 8.18355 10.2216 8.14752 10.2141 8.10882C10.1846 7.95702 10.2343 7.81988 10.3254 7.80218ZM13.7805 7.76018C13.8731 7.75556 13.955 7.87738 13.9631 8.03167C13.966 8.08781 13.9545 8.13933 13.9397 8.18401C13.9755 8.17962 14.0147 8.18031 14.0549 8.18597C14.2079 8.20757 14.3217 8.29922 14.3088 8.39104C14.2958 8.48281 14.161 8.53947 14.008 8.518C13.8549 8.49648 13.7412 8.4048 13.7541 8.31292C13.7545 8.31063 13.7546 8.30833 13.7551 8.30608L13.7532 8.30511C13.753 8.30767 13.7545 8.31036 13.7541 8.31292C13.7412 8.4048 13.6065 8.46139 13.4534 8.43987C13.3003 8.41834 13.1865 8.32666 13.1995 8.23479C13.2125 8.14301 13.3472 8.08633 13.5002 8.10784C13.5559 8.11568 13.6047 8.13556 13.6457 8.15862C13.6353 8.12535 13.6292 8.08825 13.6272 8.04925C13.6191 7.89482 13.6879 7.76504 13.7805 7.76018ZM12.0051 7.68987C12.0962 7.67217 12.1944 7.78124 12.2239 7.93304C12.2345 7.98795 12.2303 8.04023 12.2219 8.08636C12.2567 8.07703 12.2956 8.07268 12.3362 8.07268C12.4908 8.07271 12.6164 8.14789 12.6164 8.24065C12.6162 8.33328 12.4906 8.40859 12.3362 8.40862C12.1817 8.40862 12.0562 8.33329 12.0559 8.24065C12.0559 8.23846 12.0567 8.23599 12.0569 8.23382C12.0559 8.23349 12.0549 8.2332 12.0539 8.23284C12.0541 8.23537 12.0559 8.23809 12.0559 8.24065C12.0556 8.33329 11.9301 8.40862 11.7756 8.40862C11.6214 8.40847 11.4966 8.3332 11.4963 8.24065C11.4963 8.14796 11.6212 8.07283 11.7756 8.07268C11.8325 8.07268 11.8848 8.08546 11.9289 8.10296C11.9138 8.0712 11.9013 8.03528 11.8938 7.99651C11.8644 7.84486 11.9142 7.70767 12.0051 7.68987Z" fill="#C88A02"/>
<path d="M12.2197 5.22406H12.373V5.45746H12.2197V5.92426H12.373V6.15765H11.832V5.92426H11.9873V5.45746H11.832V5.22406H11.9873V5.0766H12.2197V5.22406Z" fill="#C88A02"/>
<rect x="11.944" y="6.34399" width="0.448" height="1.456" fill="#C88A02"/>
<path d="M10.1406 6.58785L10.1386 6.69984C9.14552 6.6825 8.57587 6.82742 8.43127 7.11627C8.28177 7.4149 8.30957 7.77792 8.51905 8.20915L8.4183 8.25809C8.1948 7.79799 8.16428 7.3994 8.33112 7.06614C8.50285 6.7231 9.10547 6.56978 10.1406 6.58785Z" fill="white"/>
<path d="M10.3327 7.58101L10.2753 7.67717C10.059 7.54804 9.95081 7.32766 9.95081 7.02396C9.95081 6.58748 10.1756 6.33153 10.673 6.15637C10.9904 6.04458 11.424 6.09041 11.9751 6.29019L11.9369 6.39548C11.4079 6.2037 10.9986 6.16044 10.7102 6.26201C10.254 6.42267 10.0628 6.64034 10.0628 7.02396C10.0628 7.29047 10.1527 7.47352 10.3327 7.58101Z" fill="white"/>
<path d="M8.66015 8.03739L8.44881 8.11162C8.22953 7.48727 8.29215 7.06326 8.66684 6.88035C8.99701 6.71918 9.47819 6.65359 10.1128 6.67931L10.1037 6.90313C9.50288 6.87878 9.05588 6.93971 8.7651 7.08165C8.51886 7.20185 8.47381 7.50684 8.66015 8.03739Z" fill="#C88A02"/>
<path d="M11.1293 6.43872C10.6172 6.43872 10.4068 6.56346 10.2867 6.93174C10.2101 7.16644 10.2844 7.36676 10.5252 7.55374L10.3878 7.73066C10.076 7.48858 9.96613 7.1921 10.0737 6.86227C10.2269 6.39292 10.5273 6.21472 11.1293 6.21472C11.5238 6.21472 11.8312 6.31838 12.0452 6.52934L12.0786 6.56224V7.6422H11.8546V6.65798C11.6874 6.5128 11.4474 6.43872 11.1293 6.43872Z" fill="#C88A02"/>
<path d="M14.049 6.69985L14.0509 6.81183C15.0441 6.7945 15.6137 6.93942 15.7583 7.22827C15.9078 7.5269 15.88 7.88992 15.6705 8.32115L15.7713 8.37009C15.9948 7.90999 16.0253 7.5114 15.8585 7.17814C15.6867 6.83509 15.0841 6.68178 14.049 6.69985Z" fill="white"/>
<path d="M13.6983 7.60433L13.7557 7.70049C13.972 7.57135 14.0802 7.35098 14.0802 7.04728C14.0802 6.6108 13.8554 6.35484 13.358 6.17968C13.0406 6.06789 12.607 6.11373 12.056 6.31351L12.0942 6.4188C12.6231 6.22702 13.0324 6.18375 13.3208 6.28532C13.777 6.44598 13.9682 6.66366 13.9682 7.04728C13.9682 7.31379 13.8783 7.49683 13.6983 7.60433Z" fill="white"/>
<path d="M15.5992 8.14939L15.8106 8.22362C16.0299 7.59927 15.9673 7.17526 15.5926 6.99235C15.2624 6.83118 14.7812 6.76559 14.1466 6.79131L14.1557 7.01513C14.7565 6.99078 15.2035 7.05171 15.4943 7.19365C15.7405 7.31385 15.7856 7.61884 15.5992 8.14939Z" fill="#C88A02"/>
<path d="M13.1173 6.45606C13.6294 6.45606 13.8397 6.58079 13.9599 6.94908C14.0365 7.18378 13.9622 7.38409 13.7214 7.57108L13.8588 7.748C14.1705 7.50592 14.2805 7.20943 14.1728 6.8796C14.0197 6.41025 13.7193 6.23206 13.1173 6.23206C12.7227 6.23206 12.4154 6.33571 12.2014 6.54667L12.168 6.57957V7.65954H12.392V6.67531C12.5591 6.53014 12.7992 6.45606 13.1173 6.45606Z" fill="#C88A02"/>
<path opacity="0.3" fill-rule="evenodd" clip-rule="evenodd" d="M8.47202 10.264H15.752V16.8048C15.752 16.8048 15.2112 19 12.112 19C9.01279 19 8.47202 16.7469 8.47202 16.7469V10.264Z" fill="#E1E5E8"/>
<mask id="mask3_6021_64253" style="mask-type:luminance" maskUnits="userSpaceOnUse" x="8" y="10" width="8" height="9">
<path fill-rule="evenodd" clip-rule="evenodd" d="M8.47202 10.264H15.752V16.8048C15.752 16.8048 15.2112 19 12.112 19C9.01279 19 8.47202 16.7469 8.47202 16.7469V10.264Z" fill="white"/>
</mask>
<g mask="url(#mask3_6021_64253)">
<rect x="8.47202" y="14.296" width="3.696" height="4.368" fill="#FFC034"/>
<rect x="8.92001" y="14.52" width="0.448" height="4.144" fill="#AD1619"/>
<rect x="10.488" y="14.52" width="0.448" height="4.144" fill="#AD1619"/>
<rect x="9.70401" y="14.52" width="0.448" height="4.144" fill="#AD1619"/>
<rect x="11.272" y="14.52" width="0.448" height="4.144" fill="#AD1619"/>
<rect x="8.47202" y="10.152" width="3.696" height="4.256" fill="#AD1619"/>
<rect x="12.056" y="14.184" width="3.696" height="4.256" fill="#AD1619"/>
<rect x="12.056" y="10.264" width="3.92" height="4.144" fill="#F1F9FF"/>
<path d="M10.3761 11.5287H10.5998V11.0648H10.9357V11.5287H11.2716V12.1097H10.9357V13.1556H11.2716V13.7357H9.25601V13.1556H9.59195V12.1097H9.25601V11.5287H9.47964V11.0648H9.81558V11.5287H10.0402V10.6H10.3761V11.5287Z" fill="#C88A02"/>
<path d="M13.6261 10.8046C13.8926 10.6981 14.2032 10.8102 14.4669 11.1864C14.6172 11.4009 14.6173 11.6376 14.4709 11.8251C14.3969 11.9196 14.2951 11.9913 14.1711 12.0497C14.265 12.1823 14.3216 12.2568 14.4181 12.3661C14.4639 12.4179 14.5039 12.4675 14.5402 12.5135C14.5751 12.4937 14.6193 12.4772 14.674 12.4608C14.6826 12.4582 14.6919 12.4556 14.7013 12.453C14.7359 12.4434 14.7609 12.4354 14.7814 12.4286C14.8738 12.3976 14.8706 12.4081 14.8703 12.1395C14.8702 12.1189 14.8703 12.118 14.8703 12.0965C14.8703 12.0291 14.8679 11.9714 14.8625 11.8397C14.8622 11.8337 14.8627 11.8329 14.8625 11.827C14.8423 11.3428 14.8599 11.1572 15.008 11.0243L15.1574 11.1913C15.0856 11.2561 15.0697 11.4229 15.0861 11.8172C15.0863 11.8234 15.0858 11.8245 15.0861 11.8309C15.0917 11.9657 15.0939 12.0249 15.0939 12.0965C15.0939 12.1176 15.0939 12.1183 15.0939 12.1385C15.0944 12.4948 15.0672 12.5694 14.8527 12.6415C14.8278 12.6498 14.7989 12.6583 14.7609 12.6688C14.753 12.671 14.7455 12.6735 14.7384 12.6756C14.7072 12.685 14.6846 12.6895 14.6691 12.6962C14.6901 12.7318 14.7078 12.7652 14.7209 12.7967C14.7809 12.9424 14.7615 13.0806 14.6505 13.159C14.6509 13.1609 14.6512 13.1632 14.6515 13.1649C14.6523 13.1687 14.6534 13.1731 14.6564 13.1844C14.6693 13.2372 14.6669 13.2915 14.6427 13.5057C14.6291 13.6269 14.6291 13.7068 14.6369 13.7284C14.6294 13.7077 14.6019 13.6844 14.5636 13.6844L14.5568 13.6786C14.5549 13.6807 14.5527 13.6825 14.5509 13.6844H14.5636L14.5714 13.6913C14.5673 13.6919 14.5633 13.6934 14.5597 13.6942L14.549 13.6844C14.5396 13.6944 14.5331 13.7022 14.5285 13.7059L14.5304 13.7049C14.5368 13.7011 14.5464 13.6973 14.5597 13.6942L14.7082 13.829C14.614 13.9329 14.4788 13.9499 14.4259 13.8036C14.4026 13.7385 14.4026 13.6356 14.4201 13.4803C14.4405 13.2987 14.4424 13.2545 14.4386 13.2381C14.4364 13.2297 14.4338 13.2201 14.4318 13.2108C14.4238 13.173 14.4197 13.1223 14.4191 13.0389L14.3312 13.2313C14.2315 13.1852 14.18 13.1433 14.1671 13.0702C14.1627 13.0444 14.1653 13.0209 14.172 12.9969C14.1752 12.9857 14.1788 12.9738 14.1837 12.9608C14.1954 12.9288 14.1925 12.9099 14.1418 12.8407C14.1293 12.8237 14.1171 12.8052 14.1037 12.786C14.0994 12.7847 14.0952 12.7833 14.091 12.7821C14.0383 12.7666 13.9929 12.7552 13.9562 12.7479C13.9683 12.7796 13.9829 12.8142 14.0002 12.8534C14.0026 12.8588 14.0618 12.99 14.0763 13.0253C14.1062 13.0978 14.122 13.1521 14.1252 13.2059C14.1382 13.4351 13.9529 13.4905 13.7218 13.4227C13.5494 13.3721 13.4612 13.3517 13.4367 13.3524C13.5131 13.3502 13.5549 13.2665 13.55 13.2352L13.2179 13.287C13.1957 13.1443 13.2577 13.0213 13.4279 13.0165C13.4923 13.0147 13.5747 13.031 13.7306 13.0751C13.72 13.0508 13.7074 13.0219 13.6925 12.9881C13.6554 12.9037 13.6283 12.836 13.6076 12.7674C13.5494 12.5753 13.6471 12.4244 13.8332 12.4051C13.8427 12.4041 13.8525 12.4045 13.8625 12.4042C13.8224 12.3371 13.7803 12.2644 13.7355 12.1864C13.7106 12.1912 13.6877 12.1978 13.6662 12.201L13.6525 12.1141C13.5593 12.2181 13.4657 12.3146 13.3732 12.3876C13.1502 12.5633 12.9425 12.6222 12.7863 12.4471L13.0373 12.2235C13.0289 12.2142 13.0156 12.2111 13.0236 12.2088C13.0567 12.1994 13.1064 12.1702 13.1652 12.1239C13.2282 12.0742 13.295 12.0076 13.3634 11.9344C13.2692 11.8718 13.1766 11.7854 13.0871 11.6766C13.0197 11.5947 12.9609 11.5401 12.9054 11.5018C12.8777 11.4827 12.795 11.4374 12.7834 11.4296C12.6449 11.3365 12.6526 11.248 12.7365 11.037L13.049 11.161C13.0451 11.1709 13.0414 11.1802 13.0382 11.1883C13.0583 11.2002 13.0796 11.2133 13.0959 11.2245C13.1779 11.2809 13.2597 11.3578 13.3468 11.4637C13.4328 11.5682 13.5123 11.6379 13.5861 11.6776L13.5822 11.6473C13.597 11.6451 13.6277 11.6389 13.6681 11.6297C13.7356 11.6145 13.8029 11.5949 13.8634 11.5721C13.9259 11.5486 13.9748 11.5236 14.0041 11.5028C13.9289 11.3967 13.8689 11.345 13.8273 11.3299C13.8213 11.3278 13.8266 11.3281 13.8341 11.3251C13.8421 11.3219 13.8518 11.3158 13.8644 11.3065L13.5314 10.8563C13.5554 10.8386 13.5869 10.8202 13.6261 10.8046ZM14.4113 12.9266C14.4124 12.957 14.4103 12.9866 14.4015 13.0165C14.4068 13.0192 14.4126 13.0222 14.4191 13.0253C14.4191 13.022 14.4191 13.0188 14.4191 13.0155C14.4191 12.9906 14.4178 12.967 14.4171 12.9413C14.4159 12.9389 14.4143 12.9339 14.4113 12.9266Z" fill="#C37C9C"/>
<path d="M13.9789 10.795L14.2082 10.5494L14.6898 10.9993L14.4604 11.2448L13.9789 10.795Z" fill="#C88A02"/>
<path d="M15.3598 17.1401L15.3549 17.1597C15.2126 17.7502 14.7304 18.0482 13.9604 18.0483C13.1893 18.0483 12.7066 17.7421 12.5649 17.1382L12.56 17.1196V14.688H15.3598V17.1401ZM12.896 17.0796C13.0034 17.5033 13.3417 17.7124 13.9604 17.7124C14.5791 17.7123 14.9168 17.5089 15.0239 17.0991V15.0239H12.896V17.0796Z" fill="#FFC034"/>
<path d="M14.0759 15.8871L14.8875 15.0043L15.0525 15.1556L14.2205 16.0609H15.1511V16.3969H14.2029L15.0525 17.3217L14.8875 17.473L14.0759 16.5892V17.7719H13.8425V16.472L12.9226 17.473L12.7576 17.3217L13.6062 16.3969H12.8357V16.0609H13.5906L12.7576 15.1556L12.9226 15.0043L13.8425 16.0043V14.8929H14.0759V15.8871Z" fill="#FFC034"/>
<path fill-rule="evenodd" clip-rule="evenodd" d="M14.4827 18.4427C14.4827 18.4427 12.1105 18.6292 12.1105 17.0992C12.1105 17.0992 12.0879 18.4427 9.6109 18.4427V19.6505H14.4827V18.4427Z" fill="#F1F9FF"/>
<path fill-rule="evenodd" clip-rule="evenodd" d="M12.112 15.192C12.5759 15.192 12.952 14.7908 12.952 14.296C12.952 13.8011 12.5759 13.4 12.112 13.4C11.6481 13.4 11.272 13.8011 11.272 14.296C11.272 14.7908 11.6481 15.192 12.112 15.192Z" fill="#005BBF" stroke="#AD1619" stroke-width="1.16667"/>
</g>
</g>
</g>
<rect x="0.5" y="0.5" width="33" height="25" stroke="#DDE4F9"/>
<defs>
<clipPath id="clip0_6021_64253">
<rect x="1" y="1" width="32" height="24" fill="white"/>
</clipPath>
</defs>
</svg>
