<svg width="32" height="24" viewBox="0 0 32 24" fill="none" xmlns="http://www.w3.org/2000/svg">
<g clip-path="url(#clip0_6021_67167)">
<mask id="mask0_6021_67167" style="mask-type:luminance" maskUnits="userSpaceOnUse" x="0" y="0" width="32" height="24">
<path d="M32 0H0V24H32V0Z" fill="white"/>
</mask>
<g mask="url(#mask0_6021_67167)">
<path d="M32 0H0V24H32V0Z" fill="white"/>
<path fill-rule="evenodd" clip-rule="evenodd" d="M0 0V24H32V0H0Z" fill="#F7FCFF"/>
<mask id="mask1_6021_67167" style="mask-type:luminance" maskUnits="userSpaceOnUse" x="0" y="0" width="32" height="24">
<path fill-rule="evenodd" clip-rule="evenodd" d="M0 0V24H32V0H0Z" fill="white"/>
</mask>
<g mask="url(#mask1_6021_67167)">
<path fill-rule="evenodd" clip-rule="evenodd" d="M16.0002 18.2195C19.2029 18.2195 21.7993 15.4623 21.7993 12.061C21.7993 8.65974 19.2029 5.90247 16.0002 5.90247C12.7975 5.90247 10.2012 8.65974 10.2012 12.061C10.2012 15.4623 12.7975 18.2195 16.0002 18.2195Z" fill="#3D58DB"/>
<mask id="mask2_6021_67167" style="mask-type:luminance" maskUnits="userSpaceOnUse" x="10" y="5" width="12" height="14">
<path fill-rule="evenodd" clip-rule="evenodd" d="M16.0002 18.2195C19.2029 18.2195 21.7993 15.4623 21.7993 12.061C21.7993 8.65974 19.2029 5.90247 16.0002 5.90247C12.7975 5.90247 10.2012 8.65974 10.2012 12.061C10.2012 15.4623 12.7975 18.2195 16.0002 18.2195Z" fill="white"/>
</mask>
<g mask="url(#mask2_6021_67167)">
<path fill-rule="evenodd" clip-rule="evenodd" d="M22.0019 12.5328C22.0019 12.5328 21.6764 9.6288 19.2657 9.47116C16.8551 9.31351 16.2051 11.6007 16.066 12.2067C15.9269 12.8127 15.5748 14.4292 13.0366 14.4292C10.4985 14.4292 10.2695 10.3188 10.2695 10.3188V5.47192H22.0019V12.5328Z" fill="#E31D1C"/>
</g>
<path d="M11.2251 5.57458L7.12549 10.4916L6.21045 9.66443L10.3101 4.74646L11.2251 5.57458ZM9.72314 4.21912L5.63525 9.099L4.72021 8.27185L8.80811 3.39099L9.72314 4.21912ZM8.21436 2.87927L3.97412 7.83142L3.05908 7.00427L7.29932 2.05212L8.21436 2.87927Z" fill="#272727"/>
<path d="M24.2495 8.63977L25.8374 10.5021L26.7524 9.67786L25.1646 7.81458L24.2495 8.63977ZM22.9956 3.83118L27.4146 9.21204L28.3296 8.38782L23.9106 3.00696L22.9956 3.83118ZM27.27 5.95618L28.8579 7.81946L29.7729 6.99426L28.1851 5.13196L27.27 5.95618ZM21.4282 5.21301L23.0151 7.07532L23.9312 6.2511L22.3433 4.38879L21.4282 5.21301ZM24.4487 2.52942L26.0366 4.3927L26.9517 3.56848L25.3638 1.7052L24.4487 2.52942Z" fill="#272727"/>
<path d="M26.4092 20.228L24.8086 22.0981L23.8857 21.27L25.4863 19.3999L26.4092 20.228ZM24.8896 18.8062L23.2188 20.8022L22.2959 19.9751L23.9668 17.978L24.8896 18.8062ZM23.3633 17.5347L21.7627 19.4038L20.8398 18.5767L22.4404 16.7065L23.3633 17.5347ZM28.9688 16.8608L27.3682 18.731L26.4453 17.9028L28.0459 16.0327L28.9688 16.8608ZM27.6309 15.478L25.96 17.4751L25.0371 16.6479L26.708 14.6509L27.6309 15.478ZM26.0547 14.2437L24.4541 16.1128L23.5312 15.2856L25.1318 13.4155L26.0547 14.2437Z" fill="#272727"/>
<path d="M3.39453 17.5157L7.5 22.2599L8.41504 21.4337L4.30957 16.6906L3.39453 17.5157ZM7.35938 18.9835L9.08496 20.879L10 20.0538L8.27441 18.1583L7.35938 18.9835ZM6.40625 14.8898L10.4912 19.5704L11.4062 18.7452L7.32129 14.0646L6.40625 14.8898ZM4.96094 16.1525L6.45605 17.9064L7.37109 17.0812L5.87598 15.3273L4.96094 16.1525Z" fill="#272727"/>
</g>
</g>
</g>
<defs>
<clipPath id="clip0_6021_67167">
<rect width="32" height="24" fill="white"/>
</clipPath>
</defs>
</svg>
