<svg width="32" height="24" viewBox="0 0 32 24" fill="none" xmlns="http://www.w3.org/2000/svg">
<g clip-path="url(#clip0_6021_67076)">
<rect width="32" height="24" fill="white"/>
<path fill-rule="evenodd" clip-rule="evenodd" d="M8 0H32V24H8V0Z" fill="#EF0000"/>
<path fill-rule="evenodd" clip-rule="evenodd" d="M0 0H12V24H0V0Z" fill="#2F8D00"/>
<mask id="mask0_6021_67076" style="mask-type:luminance" maskUnits="userSpaceOnUse" x="4" y="4" width="16" height="16">
<path fill-rule="evenodd" clip-rule="evenodd" d="M11.9047 19.8072C7.64423 19.8072 4.19043 16.3118 4.19043 12C4.19043 7.68816 7.64423 4.19275 11.9047 4.19275C16.1652 4.19275 19.619 7.68816 19.619 12C19.619 16.3118 16.1652 19.8072 11.9047 19.8072Z" fill="white"/>
</mask>
<g mask="url(#mask0_6021_67076)">
<path fill-rule="evenodd" clip-rule="evenodd" d="M11.4287 4H12.4287V6.6988H11.4287V4Z" fill="#FFE017"/>
<path fill-rule="evenodd" clip-rule="evenodd" d="M11.4287 17.4939H12.4287V19.9999H11.4287V17.4939Z" fill="#FFE017"/>
<path d="M4.31425 12.4038L4.03467 11.6865C7.11985 10.4548 9.44841 9.6605 11.0284 9.30252C13.3465 8.77732 15.8936 8.38873 18.6698 8.13647L18.7379 8.90447C15.9936 9.15383 13.4792 9.53743 11.1949 10.055C9.6619 10.4023 7.36568 11.1856 4.31425 12.4038Z" fill="#FFE017"/>
<path d="M19.1408 7.66384L18.914 8.39994C16.5822 7.66383 14.6828 7.34741 13.2228 7.44542L13.1724 6.67603C14.74 6.5708 16.7271 6.90183 19.1408 7.66384Z" fill="#FFE017"/>
<path d="M19.9476 11.7797L19.5166 12.4156C18.3279 11.5903 16.8635 11.1757 15.1133 11.1757V10.4047C17.0107 10.4047 18.6254 10.8617 19.9476 11.7797Z" fill="#FFE017"/>
<path d="M19.3018 12.0105L19.4988 12.7554C16.9361 13.4495 14.5302 13.8433 12.2807 13.9361C10.0158 14.0294 7.37591 13.6342 4.35889 12.7534L4.57007 12.0125C7.51377 12.8719 10.0744 13.2553 12.2497 13.1656C14.4405 13.0753 16.7913 12.6905 19.3018 12.0105Z" fill="#FFE017"/>
<path d="M19.0116 15.6359L17.8072 16.8705C15.5185 14.584 13.5036 12.949 11.7748 11.9666C10.0165 10.9675 7.72353 9.9529 4.89941 8.927L5.47856 7.29407C8.38597 8.35022 10.7633 9.40212 12.6141 10.4538C14.4945 11.5224 16.6228 13.2494 19.0116 15.6359Z" fill="#FFE017"/>
<path d="M5.4583 16.3353L5.00244 15.7175C5.0661 15.6694 5.17969 15.5891 5.33619 15.4875C5.59459 15.3196 5.88153 15.152 6.19025 14.9954C7.04055 14.5641 7.89349 14.2947 8.70701 14.27C8.74679 14.2688 8.78641 14.2682 8.82586 14.2682V15.0393C8.79408 15.0393 8.76209 15.0398 8.72989 15.0407C8.04432 15.0616 7.29145 15.2993 6.53166 15.6847C6.24846 15.8284 5.98459 15.9825 5.74777 16.1364C5.66534 16.1899 5.59241 16.2394 5.52991 16.2836C5.49348 16.3093 5.4693 16.327 5.4583 16.3353Z" fill="#FFE017"/>
<path d="M5.81201 16.6025L6.00388 15.8563C8.544 16.5253 10.5023 16.8586 11.869 16.8586C13.2306 16.8586 15.2571 16.4654 17.9356 15.6763L18.1485 16.4166C15.4068 17.2244 13.318 17.6297 11.869 17.6297C10.4251 17.6297 8.40936 17.2866 5.81201 16.6025Z" fill="#FFE017"/>
<path d="M4.82227 9.69434L6.02934 8.4624L7.79666 10.236L6.58959 11.468L4.82227 9.69434Z" fill="#FFE017"/>
<path d="M14.8359 15.8477L15.7338 14.3698L18.5374 16.1142L17.6396 17.5922L14.8359 15.8477Z" fill="#FFE017"/>
</g>
<path d="M11.9043 4.19275C16.1648 4.19275 19.6191 7.68855 19.6191 12.0004C19.6189 16.312 16.1647 19.807 11.9043 19.807C7.64413 19.8068 4.19064 16.3119 4.19043 12.0004C4.19043 7.68869 7.64401 4.19298 11.9043 4.19275ZM12 5.349C8.3182 5.349 5.33316 8.36995 5.33301 12.0961C5.33301 15.8223 8.3181 18.8431 12 18.8431C15.6819 18.8431 18.667 15.8223 18.667 12.0961C18.6668 8.36996 15.6818 5.34902 12 5.349Z" fill="#F9E813"/>
<path d="M7.65674 7.1853V13.446C8.06887 15.9241 9.45734 17.1631 11.8221 17.1631C14.1869 17.1631 15.5754 15.9241 15.9875 13.446V7.1853H7.65674Z" fill="white"/>
<path d="M7.08545 6.60693H16.5591V13.4943L16.5512 13.5419C16.0935 16.2936 14.4712 17.7414 11.8223 17.7414C9.17338 17.7414 7.55101 16.2936 7.09338 13.5419L7.08545 13.4943V6.60693Z" fill="#C51918"/>
<path d="M9.25244 8.71069H14.3922V13.1516C14.3922 13.1516 14.0108 15.4449 11.8223 15.4449C9.63384 15.4449 9.25244 13.1516 9.25244 13.1516V8.71069Z" fill="#F7FCFF"/>
<path fill-rule="evenodd" clip-rule="evenodd" d="M8 7.08435H8.72289V7.56628H8V7.08435Z" fill="#F9E813"/>
<path fill-rule="evenodd" clip-rule="evenodd" d="M7.61914 7.2771H8.95247V7.51806H7.61914V7.2771Z" fill="#060101"/>
<path fill-rule="evenodd" clip-rule="evenodd" d="M7.61914 7.46985H8.34203V7.71081H7.61914V7.46985Z" fill="#F9E813"/>
<path fill-rule="evenodd" clip-rule="evenodd" d="M8.38086 7.46985H9.10375V7.71081H8.38086V7.46985Z" fill="#F9E813"/>
<path fill-rule="evenodd" clip-rule="evenodd" d="M7.61914 8.04822H8.10107V8.77111H7.61914V8.04822Z" fill="#F9E813"/>
<path fill-rule="evenodd" clip-rule="evenodd" d="M8.57129 8.04822H9.05322V8.77111H8.57129V8.04822Z" fill="#F9E813"/>
<path fill-rule="evenodd" clip-rule="evenodd" d="M8.19043 8.04822H8.43139V8.77111H8.19043V8.04822Z" fill="#F9E813"/>
<path fill-rule="evenodd" clip-rule="evenodd" d="M7.61914 7.85547H8.95247V8.09643H7.61914V7.85547Z" fill="#060101"/>
<path fill-rule="evenodd" clip-rule="evenodd" d="M7.61914 8.43372H8.95247V8.67468H7.61914V8.43372Z" fill="#060101"/>
<path fill-rule="evenodd" clip-rule="evenodd" d="M7.80957 7.66272H8.05053V7.90368H7.80957V7.66272Z" fill="#F9E813"/>
<path fill-rule="evenodd" clip-rule="evenodd" d="M8.57129 7.66272H8.81225V7.90368H8.57129V7.66272Z" fill="#F9E813"/>
<path fill-rule="evenodd" clip-rule="evenodd" d="M8.19043 7.46985H8.43139V7.95178H8.19043V7.46985Z" fill="#F9E813"/>
<path fill-rule="evenodd" clip-rule="evenodd" d="M11.6191 7.08435H12.342V7.56628H11.6191V7.08435Z" fill="#F9E813"/>
<path fill-rule="evenodd" clip-rule="evenodd" d="M11.2383 7.2771H12.5716V7.51806H11.2383V7.2771Z" fill="#060101"/>
<path fill-rule="evenodd" clip-rule="evenodd" d="M11.2383 7.46985H11.9612V7.71081H11.2383V7.46985Z" fill="#F9E813"/>
<path fill-rule="evenodd" clip-rule="evenodd" d="M12 7.46985H12.7229V7.71081H12V7.46985Z" fill="#F9E813"/>
<path fill-rule="evenodd" clip-rule="evenodd" d="M11.2383 8.04822H11.7202V8.77111H11.2383V8.04822Z" fill="#F9E813"/>
<path fill-rule="evenodd" clip-rule="evenodd" d="M12.1904 8.04822H12.6724V8.77111H12.1904V8.04822Z" fill="#F9E813"/>
<path fill-rule="evenodd" clip-rule="evenodd" d="M11.8096 8.04822H12.0505V8.77111H11.8096V8.04822Z" fill="#F9E813"/>
<path fill-rule="evenodd" clip-rule="evenodd" d="M11.2383 7.85547H12.5716V8.09643H11.2383V7.85547Z" fill="#060101"/>
<path fill-rule="evenodd" clip-rule="evenodd" d="M11.2383 8.43372H12.5716V8.67468H11.2383V8.43372Z" fill="#060101"/>
<path fill-rule="evenodd" clip-rule="evenodd" d="M11.4287 7.66272H11.6697V7.90368H11.4287V7.66272Z" fill="#F9E813"/>
<path fill-rule="evenodd" clip-rule="evenodd" d="M12.1904 7.66272H12.4314V7.90368H12.1904V7.66272Z" fill="#F9E813"/>
<path fill-rule="evenodd" clip-rule="evenodd" d="M11.8096 7.46985H12.0505V7.95178H11.8096V7.46985Z" fill="#F9E813"/>
<path fill-rule="evenodd" clip-rule="evenodd" d="M15.0479 7.08435H15.7707V7.56628H15.0479V7.08435Z" fill="#F9E813"/>
<path fill-rule="evenodd" clip-rule="evenodd" d="M14.667 7.2771H16.0003V7.51806H14.667V7.2771Z" fill="#060101"/>
<path fill-rule="evenodd" clip-rule="evenodd" d="M14.667 7.46985H15.3899V7.71081H14.667V7.46985Z" fill="#F9E813"/>
<path fill-rule="evenodd" clip-rule="evenodd" d="M15.4287 7.46985H16.1516V7.71081H15.4287V7.46985Z" fill="#F9E813"/>
<path fill-rule="evenodd" clip-rule="evenodd" d="M14.667 8.04822H15.1489V8.77111H14.667V8.04822Z" fill="#F9E813"/>
<path fill-rule="evenodd" clip-rule="evenodd" d="M15.6191 8.04822H16.1011V8.77111H15.6191V8.04822Z" fill="#F9E813"/>
<path fill-rule="evenodd" clip-rule="evenodd" d="M15.2383 8.04822H15.4792V8.77111H15.2383V8.04822Z" fill="#F9E813"/>
<path fill-rule="evenodd" clip-rule="evenodd" d="M14.667 7.85547H16.0003V8.09643H14.667V7.85547Z" fill="#060101"/>
<path fill-rule="evenodd" clip-rule="evenodd" d="M14.667 8.43372H16.0003V8.67468H14.667V8.43372Z" fill="#060101"/>
<path fill-rule="evenodd" clip-rule="evenodd" d="M14.8574 7.66272H15.0984V7.90368H14.8574V7.66272Z" fill="#F9E813"/>
<path fill-rule="evenodd" clip-rule="evenodd" d="M15.6191 7.66272H15.8601V7.90368H15.6191V7.66272Z" fill="#F9E813"/>
<path fill-rule="evenodd" clip-rule="evenodd" d="M15.2383 7.46985H15.4792V7.95178H15.2383V7.46985Z" fill="#F9E813"/>
<path fill-rule="evenodd" clip-rule="evenodd" d="M15.0479 10.5542H15.7707V11.0361H15.0479V10.5542Z" fill="#F9E813"/>
<path fill-rule="evenodd" clip-rule="evenodd" d="M14.667 10.7469H16.0003V10.9879H14.667V10.7469Z" fill="#060101"/>
<path fill-rule="evenodd" clip-rule="evenodd" d="M14.667 10.9397H15.3899V11.1807H14.667V10.9397Z" fill="#F9E813"/>
<path fill-rule="evenodd" clip-rule="evenodd" d="M15.4287 10.9397H16.1516V11.1807H15.4287V10.9397Z" fill="#F9E813"/>
<path fill-rule="evenodd" clip-rule="evenodd" d="M14.667 11.5181H15.1489V12.241H14.667V11.5181Z" fill="#F9E813"/>
<path fill-rule="evenodd" clip-rule="evenodd" d="M15.6191 11.5181H16.1011V12.241H15.6191V11.5181Z" fill="#F9E813"/>
<path fill-rule="evenodd" clip-rule="evenodd" d="M15.2383 11.5181H15.4792V12.241H15.2383V11.5181Z" fill="#F9E813"/>
<path fill-rule="evenodd" clip-rule="evenodd" d="M14.667 11.3253H16.0003V11.5663H14.667V11.3253Z" fill="#060101"/>
<path fill-rule="evenodd" clip-rule="evenodd" d="M14.667 11.9036H16.0003V12.1445H14.667V11.9036Z" fill="#060101"/>
<path fill-rule="evenodd" clip-rule="evenodd" d="M14.8574 11.1326H15.0984V11.3735H14.8574V11.1326Z" fill="#F9E813"/>
<path fill-rule="evenodd" clip-rule="evenodd" d="M15.6191 11.1326H15.8601V11.3735H15.6191V11.1326Z" fill="#F9E813"/>
<path fill-rule="evenodd" clip-rule="evenodd" d="M15.2383 10.9397H15.4792V11.4216H15.2383V10.9397Z" fill="#F9E813"/>
<path fill-rule="evenodd" clip-rule="evenodd" d="M8 10.5542H8.72289V11.0361H8V10.5542Z" fill="#F9E813"/>
<path fill-rule="evenodd" clip-rule="evenodd" d="M7.61914 10.7469H8.95247V10.9879H7.61914V10.7469Z" fill="#060101"/>
<path fill-rule="evenodd" clip-rule="evenodd" d="M7.61914 10.9397H8.34203V11.1807H7.61914V10.9397Z" fill="#F9E813"/>
<path fill-rule="evenodd" clip-rule="evenodd" d="M8.38086 10.9397H9.10375V11.1807H8.38086V10.9397Z" fill="#F9E813"/>
<path fill-rule="evenodd" clip-rule="evenodd" d="M7.61914 11.5181H8.10107V12.241H7.61914V11.5181Z" fill="#F9E813"/>
<path fill-rule="evenodd" clip-rule="evenodd" d="M8.57129 11.5181H9.05322V12.241H8.57129V11.5181Z" fill="#F9E813"/>
<path fill-rule="evenodd" clip-rule="evenodd" d="M8.19043 11.5181H8.43139V12.241H8.19043V11.5181Z" fill="#F9E813"/>
<path fill-rule="evenodd" clip-rule="evenodd" d="M7.61914 11.3253H8.95247V11.5663H7.61914V11.3253Z" fill="#060101"/>
<path fill-rule="evenodd" clip-rule="evenodd" d="M7.61914 11.9036H8.95247V12.1445H7.61914V11.9036Z" fill="#060101"/>
<path fill-rule="evenodd" clip-rule="evenodd" d="M7.80957 11.1326H8.05053V11.3735H7.80957V11.1326Z" fill="#F9E813"/>
<path fill-rule="evenodd" clip-rule="evenodd" d="M8.57129 11.1326H8.81225V11.3735H8.57129V11.1326Z" fill="#F9E813"/>
<path fill-rule="evenodd" clip-rule="evenodd" d="M8.19043 10.9397H8.43139V11.4216H8.19043V10.9397Z" fill="#F9E813"/>
<path fill-rule="evenodd" clip-rule="evenodd" d="M8.46338 14.9039L8.92804 14.3502L9.29722 14.6599L8.83256 15.2137L8.46338 14.9039Z" fill="#F9E813"/>
<path fill-rule="evenodd" clip-rule="evenodd" d="M8.36621 15.3197L9.22326 14.2983L9.40785 14.4532L8.5508 15.4746L8.36621 15.3197Z" fill="#060101"/>
<path fill-rule="evenodd" clip-rule="evenodd" d="M8.51416 15.4436L8.97883 14.8898L9.16341 15.0447L8.69875 15.5985L8.51416 15.4436Z" fill="#F9E813"/>
<path fill-rule="evenodd" clip-rule="evenodd" d="M9.00391 14.86L9.46857 14.3062L9.65316 14.4611L9.1885 15.0149L9.00391 14.86Z" fill="#F9E813"/>
<path fill-rule="evenodd" clip-rule="evenodd" d="M8.95703 15.8153L9.26681 15.4461L9.82058 15.9108L9.5108 16.28L8.95703 15.8153Z" fill="#F9E813"/>
<path fill-rule="evenodd" clip-rule="evenodd" d="M9.56934 15.0858L9.87911 14.7166L10.4329 15.1813L10.1231 15.5505L9.56934 15.0858Z" fill="#F9E813"/>
<path fill-rule="evenodd" clip-rule="evenodd" d="M9.32422 15.3776L9.47911 15.193L10.0329 15.6576L9.87799 15.8422L9.32422 15.3776Z" fill="#F9E813"/>
<path fill-rule="evenodd" clip-rule="evenodd" d="M8.80957 15.6914L9.66662 14.67L9.85121 14.8249L8.99416 15.8463L8.80957 15.6914Z" fill="#060101"/>
<path fill-rule="evenodd" clip-rule="evenodd" d="M9.25244 16.0632L10.1095 15.0418L10.2941 15.1967L9.43703 16.2181L9.25244 16.0632Z" fill="#060101"/>
<path fill-rule="evenodd" clip-rule="evenodd" d="M8.78418 15.4216L8.93907 15.237L9.12366 15.3919L8.96877 15.5765L8.78418 15.4216Z" fill="#F9E813"/>
<path fill-rule="evenodd" clip-rule="evenodd" d="M9.27393 14.838L9.42881 14.6534L9.6134 14.8083L9.45851 14.9929L9.27393 14.838Z" fill="#F9E813"/>
<path fill-rule="evenodd" clip-rule="evenodd" d="M8.88135 15.0059L9.03624 14.8213L9.40541 15.131L9.25053 15.3156L8.88135 15.0059Z" fill="#F9E813"/>
<path fill-rule="evenodd" clip-rule="evenodd" d="M14.9785 14.4663L15.4432 15.0201L15.074 15.3299L14.6093 14.7761L14.9785 14.4663Z" fill="#F9E813"/>
<path fill-rule="evenodd" clip-rule="evenodd" d="M14.5864 14.2983L15.4435 15.3197L15.2589 15.4746L14.4018 14.4532L14.5864 14.2983Z" fill="#060101"/>
<path fill-rule="evenodd" clip-rule="evenodd" d="M14.4385 14.4222L14.9031 14.976L14.7186 15.1309L14.2539 14.5771L14.4385 14.4222Z" fill="#F9E813"/>
<path fill-rule="evenodd" clip-rule="evenodd" d="M14.9282 15.0059L15.3929 15.5596L15.2083 15.7145L14.7436 15.1607L14.9282 15.0059Z" fill="#F9E813"/>
<path fill-rule="evenodd" clip-rule="evenodd" d="M13.9956 14.7939L14.3054 15.1631L13.7516 15.6278L13.4418 15.2586L13.9956 14.7939Z" fill="#F9E813"/>
<path fill-rule="evenodd" clip-rule="evenodd" d="M14.6079 15.5236L14.9177 15.8927L14.3639 16.3574L14.0541 15.9882L14.6079 15.5236Z" fill="#F9E813"/>
<path fill-rule="evenodd" clip-rule="evenodd" d="M14.3628 15.2317L14.5177 15.4163L13.9639 15.8809L13.809 15.6964L14.3628 15.2317Z" fill="#F9E813"/>
<path fill-rule="evenodd" clip-rule="evenodd" d="M14.1431 14.67L15.0001 15.6914L14.8155 15.8463L13.9585 14.8249L14.1431 14.67Z" fill="#060101"/>
<path fill-rule="evenodd" clip-rule="evenodd" d="M13.7002 15.0419L14.5572 16.0633L14.3727 16.2182L13.5156 15.1968L13.7002 15.0419Z" fill="#060101"/>
<path fill-rule="evenodd" clip-rule="evenodd" d="M14.4131 14.6921L14.568 14.8767L14.3834 15.0316L14.2285 14.847L14.4131 14.6921Z" fill="#F9E813"/>
<path fill-rule="evenodd" clip-rule="evenodd" d="M14.9028 15.2758L15.0577 15.4603L14.8731 15.6152L14.7182 15.4306L14.9028 15.2758Z" fill="#F9E813"/>
<path fill-rule="evenodd" clip-rule="evenodd" d="M14.8057 14.86L14.9606 15.0446L14.5914 15.3544L14.4365 15.1698L14.8057 14.86Z" fill="#F9E813"/>
<path d="M12.5586 10.1667C12.5552 10.1831 12.4511 10.6628 11.8984 10.6628C11.3458 10.6628 11.2417 10.183 11.2383 10.1667V9.20483H12.5586V10.1667ZM11.6191 10.1687C11.5141 10.1688 11.4289 10.2548 11.4287 10.3611C11.4287 10.4675 11.514 10.5544 11.6191 10.5544C11.7243 10.5544 11.8096 10.4675 11.8096 10.3611C11.8094 10.2548 11.7242 10.1687 11.6191 10.1687ZM12.1904 10.1687C12.0855 10.1688 12.0002 10.2549 12 10.3611C12 10.4675 12.0853 10.5543 12.1904 10.5544C12.2956 10.5544 12.3809 10.4675 12.3809 10.3611C12.3807 10.2548 12.2955 10.1687 12.1904 10.1687ZM11.9053 9.78296C11.8001 9.78296 11.7148 9.86985 11.7148 9.97632C11.7151 10.0826 11.8002 10.1687 11.9053 10.1687C12.0102 10.1685 12.0955 10.0825 12.0957 9.97632C12.0957 9.86996 12.0103 9.78314 11.9053 9.78296ZM11.6191 9.39722C11.514 9.39727 11.4287 9.48414 11.4287 9.59058C11.4288 9.69692 11.5141 9.78291 11.6191 9.78296C11.7243 9.78296 11.8095 9.69695 11.8096 9.59058C11.8096 9.48411 11.7243 9.39722 11.6191 9.39722ZM12.1904 9.39722C12.0853 9.39734 12 9.48419 12 9.59058C12.0001 9.69687 12.0854 9.78283 12.1904 9.78296C12.2956 9.78296 12.3808 9.69695 12.3809 9.59058C12.3809 9.48411 12.2956 9.39722 12.1904 9.39722Z" fill="#013399"/>
<path d="M12.5586 12.2872C12.5552 12.3036 12.4511 12.7833 11.8984 12.7833C11.3458 12.7833 11.2417 12.3035 11.2383 12.2872V11.3253H12.5586V12.2872ZM11.6191 12.2892C11.5141 12.2892 11.4289 12.3753 11.4287 12.4816C11.4287 12.588 11.514 12.6749 11.6191 12.6749C11.7243 12.6749 11.8096 12.588 11.8096 12.4816C11.8094 12.3753 11.7242 12.2892 11.6191 12.2892ZM12.1904 12.2892C12.0855 12.2893 12.0002 12.3754 12 12.4816C12 12.588 12.0853 12.6748 12.1904 12.6749C12.2956 12.6749 12.3809 12.588 12.3809 12.4816C12.3807 12.3753 12.2955 12.2892 12.1904 12.2892ZM11.9053 11.9034C11.8001 11.9034 11.7148 11.9903 11.7148 12.0968C11.7151 12.2031 11.8002 12.2892 11.9053 12.2892C12.0102 12.289 12.0955 12.203 12.0957 12.0968C12.0957 11.9904 12.0103 11.9036 11.9053 11.9034ZM11.6191 11.5177C11.514 11.5178 11.4287 11.6046 11.4287 11.7111C11.4288 11.8174 11.5141 11.9034 11.6191 11.9034C11.7243 11.9034 11.8095 11.8174 11.8096 11.7111C11.8096 11.6046 11.7243 11.5177 11.6191 11.5177ZM12.1904 11.5177C12.0853 11.5178 12 11.6047 12 11.7111C12.0001 11.8174 12.0854 11.9033 12.1904 11.9034C12.2956 11.9034 12.3808 11.8174 12.3809 11.7111C12.3809 11.6046 12.2956 11.5177 12.1904 11.5177Z" fill="#013399"/>
<path d="M14.2729 12.2872C14.2696 12.3036 14.1654 12.7833 13.6128 12.7833C13.0601 12.7833 12.956 12.3035 12.9526 12.2872V11.3253H14.2729V12.2872ZM13.3335 12.2892C13.2285 12.2892 13.1433 12.3753 13.1431 12.4816C13.1431 12.588 13.2283 12.6749 13.3335 12.6749C13.4387 12.6749 13.5239 12.588 13.5239 12.4816C13.5237 12.3753 13.4386 12.2892 13.3335 12.2892ZM13.9048 12.2892C13.7998 12.2893 13.7146 12.3754 13.7144 12.4816C13.7144 12.588 13.7997 12.6748 13.9048 12.6749C14.01 12.6749 14.0952 12.588 14.0952 12.4816C14.095 12.3753 14.0099 12.2892 13.9048 12.2892ZM13.6196 11.9034C13.5144 11.9034 13.4292 11.9903 13.4292 12.0968C13.4294 12.2031 13.5146 12.2892 13.6196 12.2892C13.7245 12.289 13.8098 12.203 13.8101 12.0968C13.8101 11.9904 13.7247 11.9036 13.6196 11.9034ZM13.3335 11.5177C13.2283 11.5178 13.1431 11.6046 13.1431 11.7111C13.1432 11.8174 13.2284 11.9034 13.3335 11.9034C13.4386 11.9034 13.5238 11.8174 13.5239 11.7111C13.5239 11.6046 13.4387 11.5177 13.3335 11.5177ZM13.9048 11.5177C13.7997 11.5178 13.7144 11.6047 13.7144 11.7111C13.7145 11.8174 13.7998 11.9033 13.9048 11.9034C14.0099 11.9034 14.0951 11.8174 14.0952 11.7111C14.0952 11.6046 14.01 11.5177 13.9048 11.5177Z" fill="#013399"/>
<path d="M10.8442 12.2872C10.8409 12.3036 10.7367 12.7833 10.1841 12.7833C9.63143 12.7833 9.52729 12.3035 9.52393 12.2872V11.3253H10.8442V12.2872ZM9.90479 12.2892C9.79975 12.2892 9.71456 12.3753 9.71436 12.4816C9.71436 12.588 9.79963 12.6749 9.90479 12.6749C10.01 12.6749 10.0952 12.588 10.0952 12.4816C10.095 12.3753 10.0099 12.2892 9.90479 12.2892ZM10.4761 12.2892C10.3711 12.2893 10.2858 12.3754 10.2856 12.4816C10.2856 12.588 10.371 12.6748 10.4761 12.6749C10.5813 12.6749 10.6665 12.588 10.6665 12.4816C10.6663 12.3753 10.5811 12.2892 10.4761 12.2892ZM10.1909 11.9034C10.0857 11.9034 10.0005 11.9903 10.0005 12.0968C10.0007 12.2031 10.0859 12.2892 10.1909 12.2892C10.2958 12.289 10.3811 12.203 10.3813 12.0968C10.3813 11.9904 10.296 11.9036 10.1909 11.9034ZM9.90479 11.5177C9.79963 11.5178 9.71436 11.6046 9.71436 11.7111C9.71446 11.8174 9.7997 11.9034 9.90479 11.9034C10.0099 11.9034 10.0951 11.8174 10.0952 11.7111C10.0952 11.6046 10.01 11.5177 9.90479 11.5177ZM10.4761 11.5177C10.371 11.5178 10.2856 11.6047 10.2856 11.7111C10.2858 11.8174 10.371 11.9033 10.4761 11.9034C10.5812 11.9034 10.6664 11.8174 10.6665 11.7111C10.6665 11.6046 10.5813 11.5177 10.4761 11.5177Z" fill="#013399"/>
<path d="M12.5586 14.4077C12.5552 14.4241 12.4511 14.9038 11.8984 14.9038C11.3458 14.9038 11.2417 14.424 11.2383 14.4077V13.4458H12.5586V14.4077ZM11.6191 14.4097C11.5141 14.4097 11.4289 14.4958 11.4287 14.6021C11.4287 14.7085 11.514 14.7954 11.6191 14.7954C11.7243 14.7954 11.8096 14.7085 11.8096 14.6021C11.8094 14.4958 11.7242 14.4097 11.6191 14.4097ZM12.1904 14.4097C12.0855 14.4098 12.0002 14.4958 12 14.6021C12 14.7084 12.0853 14.7953 12.1904 14.7954C12.2956 14.7954 12.3809 14.7085 12.3809 14.6021C12.3807 14.4958 12.2955 14.4097 12.1904 14.4097ZM11.9053 14.0239C11.8001 14.0239 11.7148 14.1108 11.7148 14.2173C11.7151 14.3236 11.8002 14.4097 11.9053 14.4097C12.0102 14.4095 12.0955 14.3235 12.0957 14.2173C12.0957 14.1109 12.0103 14.0241 11.9053 14.0239ZM11.6191 13.6382C11.514 13.6382 11.4287 13.7251 11.4287 13.8315C11.4288 13.9379 11.5141 14.0239 11.6191 14.0239C11.7243 14.0239 11.8095 13.9379 11.8096 13.8315C11.8096 13.7251 11.7243 13.6382 11.6191 13.6382ZM12.1904 13.6382C12.0853 13.6383 12 13.7252 12 13.8315C12.0001 13.9378 12.0854 14.0238 12.1904 14.0239C12.2956 14.0239 12.3808 13.9379 12.3809 13.8315C12.3809 13.7251 12.2956 13.6382 12.1904 13.6382Z" fill="#013399"/>
</g>
<defs>
<clipPath id="clip0_6021_67076">
<rect width="32" height="24" fill="white"/>
</clipPath>
</defs>
</svg>
