<svg width="32" height="24" viewBox="0 0 32 24" fill="none" xmlns="http://www.w3.org/2000/svg">
<g clip-path="url(#clip0_6021_67131)">
<mask id="mask0_6021_67131" style="mask-type:luminance" maskUnits="userSpaceOnUse" x="0" y="0" width="32" height="24">
<path d="M32 0H0V24H32V0Z" fill="white"/>
</mask>
<g mask="url(#mask0_6021_67131)">
<path d="M32 0H0V24H32V0Z" fill="white"/>
<path fill-rule="evenodd" clip-rule="evenodd" d="M0 0H32V24H0V0Z" fill="#F7FCFF"/>
<path d="M32 18.9004H0V15.9434H32V18.9004ZM32 13.7715H0V10.8154H32V13.7715ZM32 8.45703H0V5.5H32V8.45703Z" fill="#4564F9"/>
<path fill-rule="evenodd" clip-rule="evenodd" d="M0 0H32V3H0V0Z" fill="#4564F9"/>
<path d="M32 21H0V24H32V21Z" fill="#4564F9"/>
<path fill-rule="evenodd" clip-rule="evenodd" d="M0 0H15V13.8H0V0Z" fill="#4564F9"/>
<path fill-rule="evenodd" clip-rule="evenodd" d="M6 0H9V5.50386H15V8.43867H9V14.5H6V8.43867H0V5.50386H6V0Z" fill="#F7FCFF"/>
</g>
</g>
<defs>
<clipPath id="clip0_6021_67131">
<rect width="32" height="24" fill="white"/>
</clipPath>
</defs>
</svg>
