<svg width="62" height="24" viewBox="0 0 62 24" fill="none" xmlns="http://www.w3.org/2000/svg">
<path d="M28.7432 11.6726V18.7486H26.4824V1.2749H32.4759C33.9949 1.2749 35.2902 1.77783 36.3499 2.78368C37.4332 3.78952 37.9749 5.01759 37.9749 6.46788C37.9749 7.95326 37.4332 9.18133 36.3499 10.1755C35.3019 11.1696 34.0067 11.6609 32.4759 11.6609H28.7432V11.6726ZM28.7432 3.42695V9.52051H32.523C33.4179 9.52051 34.1715 9.21642 34.7603 8.61993C35.3608 8.02343 35.667 7.29829 35.667 6.47957C35.667 5.67256 35.3608 4.95911 34.7603 4.36262C34.1715 3.74274 33.4297 3.43864 32.523 3.43864H28.7432V3.42695Z" fill="#3C4043"/>
<path d="M43.8865 6.39771C45.5585 6.39771 46.8773 6.84215 47.8429 7.73104C48.8084 8.61992 49.2912 9.8363 49.2912 11.3802V18.7486H47.1364V17.0878H47.0422C46.112 18.4562 44.8638 19.1345 43.3095 19.1345C41.9789 19.1345 40.872 18.7486 39.9771 17.9649C39.0822 17.1813 38.6348 16.2106 38.6348 15.041C38.6348 13.8012 39.1058 12.8188 40.0478 12.0936C40.9898 11.3568 42.2497 10.9942 43.8158 10.9942C45.1582 10.9942 46.265 11.2398 47.1246 11.731V11.2164C47.1246 10.4328 46.8185 9.77782 46.1944 9.22811C45.5703 8.6784 44.8402 8.4094 44.0042 8.4094C42.7443 8.4094 41.7434 8.93571 41.0133 10L39.0233 8.76027C40.1184 7.18133 41.7434 6.39771 43.8865 6.39771ZM40.9662 15.0761C40.9662 15.6609 41.2135 16.1521 41.7198 16.538C42.2144 16.924 42.8032 17.1228 43.4743 17.1228C44.4281 17.1228 45.2759 16.772 46.0177 16.0702C46.7596 15.3685 47.1364 14.5497 47.1364 13.6024C46.4299 13.0527 45.4525 12.772 44.1926 12.772C43.2742 12.772 42.5088 12.9942 41.8965 13.4269C41.2724 13.8831 40.9662 14.4328 40.9662 15.0761Z" fill="#3C4043"/>
<path d="M61.5839 6.78369L54.0479 24.0001H51.7164L54.5189 17.9767L49.5498 6.78369H52.0108L55.5904 15.3685H55.6375L59.1229 6.78369H61.5839Z" fill="#3C4043"/>
<path d="M19.7499 10.2456C19.7499 9.51343 19.684 8.81284 19.5615 8.13916H10.085V11.9988L15.5427 12C15.3213 13.2842 14.6089 14.3789 13.5174 15.1087V17.6128H16.7661C18.6631 15.869 19.7499 13.2912 19.7499 10.2456Z" fill="#4285F4"/>
<path d="M13.5185 15.1088C12.6142 15.7146 11.4496 16.069 10.0873 16.069C7.45553 16.069 5.22298 14.3076 4.42345 11.9333H1.07227V14.5158C2.73255 17.7883 6.14497 20.0339 10.0873 20.0339C12.812 20.0339 15.1011 19.1439 16.7673 17.6117L13.5185 15.1088Z" fill="#34A853"/>
<path d="M4.10832 10.0175C4.10832 9.35081 4.22018 8.70637 4.42389 8.10052V5.51807H1.07271C0.386221 6.87128 0 8.39877 0 10.0175C0 11.6362 0.387398 13.1637 1.07271 14.5169L4.42389 11.9344C4.22018 11.3286 4.10832 10.6841 4.10832 10.0175Z" fill="#FABB05"/>
<path d="M10.0873 3.96491C11.5745 3.96491 12.9062 4.47368 13.9577 5.46783L16.8367 2.61052C15.0881 0.992982 12.8085 0 10.0873 0C6.14614 0 2.73255 2.24561 1.07227 5.51812L4.42345 8.10058C5.22298 5.72631 7.45553 3.96491 10.0873 3.96491Z" fill="#E94235"/>
</svg>
