<svg width="25" height="25" viewBox="0 0 25 25" fill="none" xmlns="http://www.w3.org/2000/svg">
<path d="M6.95215 7.35888C10.2223 5.33449 14.3568 5.33543 17.627 7.35986C17.9713 7.57312 18.1816 7.94893 18.1816 8.354V12.8091C18.1817 14.548 17.2239 16.1464 15.6904 16.9663L12.8457 18.4868C12.4986 18.6724 12.0815 18.6724 11.7344 18.4868L8.88965 16.9663C7.35616 16.1465 6.39845 14.548 6.39844 12.8091V8.354C6.3985 7.94893 6.60775 7.57214 6.95215 7.35888ZM17.0029 8.35888C14.1148 6.573 10.4654 6.57312 7.57715 8.35888V12.8091C7.57716 14.1132 8.2952 15.3124 9.44531 15.9272L12.29 17.4478L15.1348 15.9272C16.2849 15.3123 17.0029 14.1133 17.0029 12.8091V8.35888ZM14.2275 10.1187C14.4575 9.88887 14.8305 9.88894 15.0605 10.1187C15.2906 10.3487 15.2906 10.7226 15.0605 10.9526L11.6982 14.3149L9.51465 12.1304C9.28457 11.9003 9.28457 11.5274 9.51465 11.2974C9.74473 11.0674 10.1176 11.0673 10.3477 11.2974L11.6982 12.6479L14.2275 10.1187Z" fill="#8695AA"/>
</svg>
